<?xml version="1.0" encoding="UTF-8" standalone="no"?>
<!-- Created with Inkscape (http://www.inkscape.org/) -->

<svg
   xmlns:dc="http://purl.org/dc/elements/1.1/"
   xmlns:cc="http://creativecommons.org/ns#"
   xmlns:rdf="http://www.w3.org/1999/02/22-rdf-syntax-ns#"
   xmlns:svg="http://www.w3.org/2000/svg"
   xmlns="http://www.w3.org/2000/svg"
   xmlns:sodipodi="http://sodipodi.sourceforge.net/DTD/sodipodi-0.dtd"
   xmlns:inkscape="http://www.inkscape.org/namespaces/inkscape"
   width="210mm"
   height="297mm"
   id="svg2"
   version="1.1"
   inkscape:version="0.47 r22583"
   sodipodi:docname="Neues Dokument 1">
  <defs
     id="defs4">
    <inkscape:perspective
       sodipodi:type="inkscape:persp3d"
       inkscape:vp_x="0 : 526.18109 : 1"
       inkscape:vp_y="0 : 1000 : 0"
       inkscape:vp_z="744.09448 : 526.18109 : 1"
       inkscape:persp3d-origin="372.04724 : 350.78739 : 1"
       id="perspective10" />
  </defs>
  <sodipodi:namedview
     id="base"
     pagecolor="#ffffff"
     bordercolor="#666666"
     borderopacity="1.0"
     inkscape:pageopacity="0.0"
     inkscape:pageshadow="2"
     inkscape:zoom="0.5"
     inkscape:cx="350"
     inkscape:cy="520"
     inkscape:document-units="px"
     inkscape:current-layer="layer1"
     showgrid="false"
     inkscape:window-width="974"
     inkscape:window-height="822"
     inkscape:window-x="92"
     inkscape:window-y="92"
     inkscape:window-maximized="0" />
  <metadata
     id="metadata7">
    <rdf:RDF>
      <cc:Work
         rdf:about="">
        <dc:format>image/svg+xml</dc:format>
        <dc:type
           rdf:resource="http://purl.org/dc/dcmitype/StillImage" />
        <dc:title></dc:title>
      </cc:Work>
    </rdf:RDF>
  </metadata>
  <g
     inkscape:label="Ebene 1"
     inkscape:groupmode="layer"
     id="layer1">
    <g
       style="font-size:40px;font-style:normal;font-weight:normal;fill:#000000;fill-opacity:1;stroke:none;font-family:Bitstream Vera Sans"
       id="text2816"
       transform="matrix(2.2916246,0,0,9.0379934,-142.55441,-3617.0433)">
      <path
         d="110.3683,440.30582 3.57422,-0.3125 c 0.16927,1.4323 0.56315,2.60743 1.18164,3.52539 0.61848,0.91797 1.57877,1.66016 2.88086,2.22656 1.30207,0.56641 2.76692,0.84961 4.39453,0.84961 1.4453,0 2.72134,-0.21484 3.82813,-0.64453 1.10675,-0.42969 1.93032,-1.01888 2.4707,-1.76758 0.54034,-0.74869 0.81053,-1.56575 0.81055,-2.45117 -2e-5,-0.89843 -0.26044,-1.68294 -0.78125,-2.35352 -0.52086,-0.67056 -1.38023,-1.23371 -2.57813,-1.68945 -0.76824,-0.29947 -2.46746,-0.76496 -5.09765,-1.39649 -2.63022,-0.63149 -4.47267,-1.22719 -5.52735,-1.7871 -1.36719,-0.71613 -2.38607,-1.60481 -3.05664,-2.66602 -0.67058,-1.06118 -1.00586,-2.24933 -1.00586,-3.56445 0,-1.44529 0.41015,-2.7962 1.23047,-4.05274 0.82031,-1.25648 2.01822,-2.21026 3.59375,-2.86133 1.57551,-0.65101 3.32681,-0.97653 5.25391,-0.97656 2.12238,3e-5 3.99412,0.34183 5.61523,1.02539 1.62107,0.68362 2.86782,1.68948 3.74024,3.01758 0.87237,1.32815 1.34112,2.83205 1.40625,4.51172 l -3.63282,0.27344 c -0.19533,-1.80988 -0.85614,-3.17706 -1.98242,-4.10157 -1.12632,-0.92445 -2.78973,-1.38669 -4.99023,-1.38671 -2.29168,2e-5 -3.9616,0.41994 -5.00977,1.25976 -1.04818,0.83987 -1.57227,1.85224 -1.57226,3.03711 -1e-5,1.02867 0.37108,1.87502 1.11328,2.53906 0.72915,0.66408 2.63345,1.34442 5.71289,2.04102 3.07941,0.69663 5.19204,1.30535 6.33789,1.82617 1.66664,0.76824 2.89711,1.74155 3.6914,2.91992 0.79425,1.1784 1.19139,2.53582 1.19141,4.07227 -2e-5,1.52344 -0.43622,2.95899 -1.30859,4.30664 -0.87242,1.34766 -2.12568,2.39583 -3.75977,3.14453 -1.63413,0.7487 -3.47332,1.12305 -5.51758,1.12305 -2.59115,0 -4.76238,-0.37761 -6.51367,-1.13282 -1.75131,-0.7552 -3.125,-1.89127 -4.12109,-3.4082 -0.9961,-1.51692 -1.52019,-3.23241 -1.57227,-5.14648 z"
         id="path2821" />
      <path
         d="145.60268,446.3605 0.50781,3.10547 c -0.98959,0.20834 -1.87501,0.3125 -2.65625,0.3125 -1.27605,0 -2.26563,-0.20182 -2.96875,-0.60547 -0.70313,-0.40364 -1.19792,-0.93424 -1.48438,-1.59179 -0.28646,-0.65755 -0.42969,-2.04101 -0.42968,-4.15039 l 0,-11.9336 -2.57813,0 0,-2.73437 2.57813,0 0,-5.13672 3.49609,-2.10938 0,7.2461 3.53516,0 0,2.73437 -3.53516,0 0,12.12891 c -1e-5,1.00261 0.0618,1.64714 0.18555,1.93359 0.12369,0.28646 0.32551,0.51433 0.60547,0.6836 0.27994,0.16927 0.68033,0.25391 1.20117,0.2539 0.39061,10e-6 0.90494,-0.0456 1.54297,-0.13672 z"
         id="path2823" />
      <path
         d="148.98158,449.50504 0,-20.74219 3.16407,0 0,3.14453 c 0.80728,-1.47134 1.55272,-2.44139 2.23632,-2.91016 0.68359,-0.46873 1.43554,-0.7031 2.25586,-0.70312 1.18489,2e-5 2.38931,0.37762 3.61328,1.13281 l -1.21093,3.26172 c -0.85939,-0.5078 -1.71876,-0.7617 -2.57813,-0.76172 -0.76824,2e-5 -1.45834,0.23114 -2.07031,0.69336 -0.61199,0.46226 -1.04819,1.10353 -1.30859,1.92383 -0.39064,1.25001 -0.58595,2.6172 -0.58594,4.10156 l 0,10.85938 z"
         id="path2825" />
      <path
         d="175.91518,446.94644 c -1.3021,1.10677 -2.55536,1.88802 -3.75977,2.34375 -1.20444,0.45573 -2.49675,0.68359 -3.87695,0.6836 -2.27865,-1e-5 -4.02995,-0.55665 -5.25391,-1.66993 -1.22396,-1.11328 -1.83594,-2.5358 -1.83594,-4.26757 0,-1.01562 0.23112,-1.94336 0.69336,-2.78321 0.46224,-0.83983 1.06771,-1.51366 1.81641,-2.02148 0.74869,-0.5078 1.59179,-0.89192 2.5293,-1.15235 0.69009,-0.18228 1.73176,-0.35806 3.125,-0.52734 2.83853,-0.33853 4.92837,-0.74217 6.26953,-1.21094 0.013,-0.48175 0.0195,-0.78774 0.0195,-0.91797 -2e-5,-1.43227 -0.33205,-2.44139 -0.99609,-3.02734 -0.89846,-0.79425 -2.23309,-1.19139 -4.00391,-1.19141 -1.65366,2e-5 -2.87436,0.28974 -3.66211,0.86914 -0.78777,0.57945 -1.37045,1.60484 -1.74805,3.07618 l -3.4375,-0.46875 c 0.3125,-1.47134 0.82682,-2.65949 1.54297,-3.56446 0.71614,-0.90493 1.7513,-1.60154 3.10547,-2.08984 1.35416,-0.48826 2.92317,-0.7324 4.70703,-0.73242 1.77082,2e-5 3.20962,0.20835 4.31641,0.625 1.10675,0.41668 1.92055,0.94077 2.4414,1.57226 0.52082,0.63153 0.8854,1.42906 1.09375,2.39258 0.11717,0.59898 0.17577,1.6797 0.17579,3.24219 l 0,4.6875 c -2e-5,3.26823 0.0748,5.33529 0.2246,6.20117 0.14972,0.86589 0.44595,1.69597 0.88868,2.49024 l -3.67188,0 c -0.3646,-0.72917 -0.59897,-1.58203 -0.70312,-2.5586 z m -0.29297,-7.85156 c -1.27606,0.52084 -3.19012,0.96355 -5.74219,1.32812 -1.44532,0.20835 -2.46746,0.44272 -3.06641,0.70313 -0.59896,0.26042 -1.0612,0.64128 -1.38671,1.14258 -0.32553,0.50131 -0.48829,1.05795 -0.48829,1.66992 0,0.9375 0.35482,1.71875 1.06446,2.34375 0.70963,0.625 1.74804,0.9375 3.11523,0.9375 1.35416,0 2.55858,-0.29622 3.61328,-0.88867 1.05468,-0.59245 1.82941,-1.40299 2.32422,-2.43164 0.37759,-0.79427 0.56639,-1.96614 0.56641,-3.51563 z"
         id="path2827" />
      <path
         d="184.64565,449.50504 0,-28.63282 3.51562,0 0,10.27344 c 1.64062,-1.90102 3.71093,-2.85154 6.21094,-2.85156 1.53644,2e-5 2.87108,0.30275 4.0039,0.9082 1.1328,0.60549 1.94334,1.44208 2.43164,2.50977 0.48827,1.06772 0.73241,2.6172 0.73243,4.64843 l 0,13.14454 -3.51563,0 0,-13.14454 c -1e-5,-1.75779 -0.38087,-3.03709 -1.14258,-3.83789 -0.76173,-0.80076 -1.8392,-1.20115 -3.23242,-1.20117 -1.04168,2e-5 -2.02149,0.2702 -2.93945,0.81055 -0.91798,0.54038 -1.57227,1.2728 -1.96289,2.19726 -0.39063,0.9245 -0.58595,2.20054 -0.58594,3.82813 l 0,11.34766 z"
         id="path2829" />
      <path
         d="206.83315,449.50504 0,-28.63282 3.51562,0 0,28.63282 z"
         id="path2831" />
      <path
         d="216.11049,449.50504 0,-28.63282 10.74219,0 c 2.18748,3e-5 3.94204,0.28974 5.26367,0.86914 1.32159,0.57946 2.35675,1.47138 3.10547,2.67578 0.74867,1.20446 1.12302,2.46422 1.12304,3.7793 -2e-5,1.22398 -0.33205,2.37632 -0.99609,3.45703 -0.66408,1.08075 -1.66669,1.95314 -3.00781,2.61719 1.73175,0.50783 3.06313,1.37371 3.99414,2.59766 0.93096,1.22397 1.39646,2.66928 1.39648,4.33593 -2e-5,1.34116 -0.28322,2.5879 -0.84961,3.74024 -0.56643,1.15235 -1.2663,2.04102 -2.09961,2.66601 -0.83335,0.62501 -1.87827,1.09701 -3.13476,1.41602 -1.25653,0.31901 -2.79624,0.47852 -4.61914,0.47852 z m 3.78906,-16.60157 6.19141,0 c 1.67967,2e-5 2.8841,-0.11066 3.61328,-0.33203 0.96352,-0.28644 1.68943,-0.7617 2.17773,-1.42578 0.48827,-0.66404 0.73241,-1.49738 0.73243,-2.5 -2e-5,-0.9505 -0.22789,-1.78709 -0.6836,-2.50977 -0.45575,-0.72263 -1.10679,-1.21742 -1.95312,-1.48437 -0.84637,-0.2669 -2.2982,-0.40037 -4.35547,-0.40039 l -5.72266,0 z m 0,13.22266 7.12891,0 c 1.22394,0 2.08332,-0.0456 2.57812,-0.13672 0.87238,-0.15625 1.60155,-0.41666 2.1875,-0.78125 0.58592,-0.36458 1.06769,-0.89518 1.44532,-1.5918 0.37758,-0.6966 0.56638,-1.50064 0.5664,-2.41211 -2e-5,-1.06769 -0.27346,-1.99543 -0.82031,-2.7832 -0.5469,-0.78775 -1.30536,-1.34113 -2.27539,-1.66016 -0.97007,-0.31899 -2.36655,-0.4785 -4.18945,-0.47851 l -6.6211,0 z"
         id="path2833" />
      <path
         d="256.07143,446.94644 c -1.3021,1.10677 -2.55536,1.88802 -3.75977,2.34375 -1.20444,0.45573 -2.49675,0.68359 -3.87695,0.6836 -2.27865,-1e-5 -4.02995,-0.55665 -5.25391,-1.66993 -1.22396,-1.11328 -1.83594,-2.5358 -1.83594,-4.26757 0,-1.01562 0.23112,-1.94336 0.69336,-2.78321 0.46224,-0.83983 1.06771,-1.51366 1.81641,-2.02148 0.74869,-0.5078 1.59179,-0.89192 2.5293,-1.15235 0.69009,-0.18228 1.73176,-0.35806 3.125,-0.52734 2.83853,-0.33853 4.92837,-0.74217 6.26953,-1.21094 0.013,-0.48175 0.0195,-0.78774 0.0195,-0.91797 -2e-5,-1.43227 -0.33205,-2.44139 -0.99609,-3.02734 -0.89846,-0.79425 -2.23309,-1.19139 -4.00391,-1.19141 -1.65366,2e-5 -2.87436,0.28974 -3.66211,0.86914 -0.78777,0.57945 -1.37045,1.60484 -1.74805,3.07618 l -3.4375,-0.46875 c 0.3125,-1.47134 0.82682,-2.65949 1.54297,-3.56446 0.71614,-0.90493 1.7513,-1.60154 3.10547,-2.08984 1.35416,-0.48826 2.92317,-0.7324 4.70703,-0.73242 1.77082,2e-5 3.20962,0.20835 4.31641,0.625 1.10675,0.41668 1.92055,0.94077 2.4414,1.57226 0.52082,0.63153 0.8854,1.42906 1.09375,2.39258 0.11717,0.59898 0.17577,1.6797 0.17579,3.24219 l 0,4.6875 c -2e-5,3.26823 0.0749,5.33529 0.2246,6.20117 0.14972,0.86589 0.44595,1.69597 0.88868,2.49024 l -3.67188,0 c -0.3646,-0.72917 -0.59897,-1.58203 -0.70312,-2.5586 z m -0.29297,-7.85156 c -1.27606,0.52084 -3.19012,0.96355 -5.74219,1.32812 -1.44532,0.20835 -2.46746,0.44272 -3.06641,0.70313 -0.59896,0.26042 -1.0612,0.64128 -1.38671,1.14258 -0.32553,0.50131 -0.48829,1.05795 -0.48829,1.66992 0,0.9375 0.35482,1.71875 1.06446,2.34375 0.70963,0.625 1.74804,0.9375 3.11523,0.9375 1.35416,0 2.55858,-0.29622 3.61328,-0.88867 1.05468,-0.59245 1.82941,-1.40299 2.32422,-2.43164 0.37759,-0.79427 0.56639,-1.96614 0.56641,-3.51563 z"
         id="path2835" />
      <path
         d="264.8019,449.50504 0,-20.74219 3.16406,0 0,2.94922 c 1.52343,-2.27863 3.72395,-3.41795 6.60156,-3.41797 1.24999,2e-5 2.39907,0.22463 3.44727,0.67383 1.04816,0.44923 1.83266,1.03843 2.35351,1.76757 0.52082,0.72919 0.8854,1.59507 1.09375,2.59766 0.13019,0.65106 0.19529,1.79038 0.19531,3.41797 l 0,12.75391 -3.51562,0 0,-12.61719 c -2e-5,-1.43228 -0.13674,-2.50324 -0.41016,-3.21289 -0.27345,-0.70962 -0.75848,-1.27603 -1.45508,-1.69922 -0.69662,-0.42316 -1.51368,-0.63475 -2.45117,-0.63477 -1.4974,2e-5 -2.78972,0.47528 -3.87695,1.42578 -1.08725,0.95054 -1.63087,2.75392 -1.63086,5.41016 l 0,11.32813 z"
         id="path2837" />
      <path
         d="287.06752,449.50504 0,-20.74219 3.16406,0 0,2.94922 c 1.52343,-2.27863 3.72395,-3.41795 6.60157,-3.41797 1.24998,2e-5 2.39907,0.22463 3.44726,0.67383 1.04816,0.44923 1.83267,1.03843 2.35352,1.76757 0.52081,0.72919 0.88539,1.59507 1.09375,2.59766 0.13019,0.65106 0.19529,1.79038 0.19531,3.41797 l 0,12.75391 -3.51563,0 0,-12.61719 c -10e-6,-1.43228 -0.13673,-2.50324 -0.41015,-3.21289 -0.27346,-0.70962 -0.75848,-1.27603 -1.45508,-1.69922 -0.69663,-0.42316 -1.51368,-0.63475 -2.45117,-0.63477 -1.49741,2e-5 -2.78972,0.47528 -3.87696,1.42578 -1.08724,0.95054 -1.63086,2.75392 -1.63085,5.41016 l 0,11.32813 z"
         id="path2839" />
    </g>
    <g
       style="font-size:40px;font-style:normal;font-weight:normal;fill:#000000;fill-opacity:1;stroke:none;font-family:Bitstream Vera Sans"
       id="text2841"
       transform="translate(226,-222)">
      <path
         d="57.230469,754.17078 3.476562,-0.54688 c 0.195308,1.39324 0.738927,2.46094 1.63086,3.20313 0.891919,0.74219 2.138663,1.11328 3.740234,1.11328 1.614572,0 2.812487,-0.32878 3.59375,-0.98633 0.781236,-0.65755 1.17186,-1.42903 1.171875,-2.31445 -1.5e-5,-0.79427 -0.345067,-1.41927 -1.035156,-1.875 -0.481784,-0.3125 -1.6797,-0.70963 -3.59375,-1.19141 -2.578133,-0.65103 -4.36524,-1.21418 -5.361328,-1.68945 -0.996098,-0.47525 -1.751306,-1.1328 -2.265625,-1.97266 -0.514325,-0.83983 -0.771487,-1.76756 -0.771485,-2.7832 -2e-6,-0.92447 0.211587,-1.78058 0.634766,-2.56836 0.423174,-0.78774 0.999345,-1.44204 1.728515,-1.96289 0.546871,-0.40363 1.292313,-0.74542 2.236329,-1.02539 0.944003,-0.27993 1.956371,-0.4199 3.037109,-0.41992 1.627593,2e-5 3.056628,0.23439 4.287109,0.70312 1.230454,0.46877 2.138656,1.10354 2.72461,1.9043 0.58592,0.8008 0.989566,1.87176 1.210937,3.21289 l -3.4375,0.46875 c -0.156264,-1.06769 -0.608737,-1.90103 -1.357422,-2.5 -0.74871,-0.59894 -1.806651,-0.89842 -3.173828,-0.89844 -1.614591,2e-5 -2.766934,0.26695 -3.457031,0.80078 -0.69011,0.53387 -1.035161,1.15887 -1.035156,1.875 -5e-6,0.45575 0.143224,0.8659 0.429687,1.23047 0.286453,0.37762 0.735671,0.69012 1.347656,0.9375 0.351556,0.13022 1.386711,0.4297 3.105469,0.89844 2.486967,0.66407 4.221991,1.20769 5.205078,1.63086 0.983057,0.42318 1.754541,1.03842 2.314453,1.8457 0.559878,0.8073 0.839826,1.8099 0.839844,3.00781 -1.8e-5,1.17188 -0.341815,2.2754 -1.02539,3.31055 -0.683611,1.03516 -1.669938,1.83594 -2.958985,2.40234 -1.289075,0.56641 -2.747407,0.84961 -4.375,0.84961 -2.69532,0 -4.749354,-0.55989 -6.162109,-1.67968 -1.412763,-1.11979 -2.314455,-2.77995 -2.705078,-4.98047 z"
         id="path2846" />
      <path
         d="79.476562,760.36218 0,-18.00781 -3.105468,0 0,-2.73437 3.105468,0 0,-2.20704 c -3e-6,-1.3932 0.123695,-2.42836 0.371094,-3.10546 0.338538,-0.91144 0.93424,-1.65037 1.78711,-2.2168 0.852858,-0.56638 2.047518,-0.84958 3.583984,-0.84961 0.989573,3e-5 2.083322,0.11722 3.28125,0.35156 l -0.527344,3.06641 c -0.729178,-0.13018 -1.419281,-0.19529 -2.070312,-0.19531 -1.067717,2e-5 -1.822925,0.22789 -2.265625,0.68359 -0.442716,0.45575 -0.66407,1.30862 -0.664063,2.55859 l 0,1.91407 4.042969,0 0,2.73437 -4.042969,0 0,18.00781 z"
         id="path2848" />
      <path
         d="103.1875,760.36218 0,-2.61718 c -1.31512,2.05729 -3.248711,3.08593 -5.800781,3.08593 -1.653655,0 -3.173835,-0.45573 -4.560547,-1.36718 -1.386723,-0.91146 -2.460941,-2.18425 -3.222656,-3.81836 -0.761721,-1.63411 -1.14258,-3.51237 -1.142579,-5.63477 -10e-7,-2.0703 0.345051,-3.94855 1.035157,-5.63477 0.690101,-1.68618 1.725256,-2.97849 3.105468,-3.87695 1.380202,-0.89842 2.923169,-1.34763 4.628907,-1.34765 1.249988,2e-5 2.363269,0.26369 3.339841,0.79101 0.97655,0.52736 1.77082,1.21421 2.38282,2.06055 l 0,-10.27344 3.49609,0 0,28.63281 z M 92.074219,750.01062 c -5e-6,2.65626 0.55989,4.64193 1.679687,5.95703 1.119784,1.31511 2.441397,1.97266 3.964844,1.97266 1.536446,0 2.84178,-0.62825 3.91602,-1.88477 1.0742,-1.2565 1.61131,-3.17382 1.61132,-5.75195 -10e-6,-2.83853 -0.54689,-4.92186 -1.64062,-6.25 -1.09376,-1.32811 -2.44142,-1.99217 -4.04297,-1.99219 -1.562509,2e-5 -2.867846,0.63804 -3.916016,1.91406 -1.048182,1.27606 -1.57227,3.28778 -1.572265,6.03516 z"
         id="path2850" />
      <path
         d="110.58984,754.17078 3.47657,-0.54688 c 0.1953,1.39324 0.73892,2.46094 1.63086,3.20313 0.89192,0.74219 2.13866,1.11328 3.74023,1.11328 1.61457,0 2.81249,-0.32878 3.59375,-0.98633 0.78124,-0.65755 1.17186,-1.42903 1.17188,-2.31445 -2e-5,-0.79427 -0.34507,-1.41927 -1.03516,-1.875 -0.48179,-0.3125 -1.6797,-0.70963 -3.59375,-1.19141 -2.57813,-0.65103 -4.36524,-1.21418 -5.36133,-1.68945 -0.9961,-0.47525 -1.7513,-1.1328 -2.26562,-1.97266 -0.51433,-0.83983 -0.77149,-1.76756 -0.77149,-2.7832 0,-0.92447 0.21159,-1.78058 0.63477,-2.56836 0.42317,-0.78774 0.99934,-1.44204 1.72851,-1.96289 0.54687,-0.40363 1.29231,-0.74542 2.23633,-1.02539 0.944,-0.27993 1.95637,-0.4199 3.03711,-0.41992 1.62759,2e-5 3.05663,0.23439 4.28711,0.70312 1.23045,0.46877 2.13866,1.10354 2.72461,1.9043 0.58592,0.8008 0.98956,1.87176 1.21094,3.21289 l -3.4375,0.46875 c -0.15627,-1.06769 -0.60874,-1.90103 -1.35743,-2.5 -0.74871,-0.59894 -1.80665,-0.89842 -3.17382,-0.89844 -1.6146,2e-5 -2.76694,0.26695 -3.45703,0.80078 -0.69011,0.53387 -1.03517,1.15887 -1.03516,1.875 -1e-5,0.45575 0.14322,0.8659 0.42969,1.23047 0.28645,0.37762 0.73567,0.69012 1.34765,0.9375 0.35156,0.13022 1.38671,0.4297 3.10547,0.89844 2.48697,0.66407 4.22199,1.20769 5.20508,1.63086 0.98306,0.42318 1.75454,1.03842 2.31445,1.8457 0.55988,0.8073 0.83983,1.8099 0.83985,3.00781 -2e-5,1.17188 -0.34182,2.2754 -1.02539,3.31055 -0.68361,1.03516 -1.66994,1.83594 -2.95899,2.40234 -1.28907,0.56641 -2.74741,0.84961 -4.375,0.84961 -2.69532,0 -4.74935,-0.55989 -6.16211,-1.67968 -1.41276,-1.11979 -2.31445,-2.77995 -2.70508,-4.98047 z"
         id="path2852" />
      <path
         d="132.83594,760.36218 0,-18.00781 -3.10547,0 0,-2.73437 3.10547,0 0,-2.20704 c -1e-5,-1.3932 0.12369,-2.42836 0.37109,-3.10546 0.33854,-0.91144 0.93424,-1.65037 1.78711,-2.2168 0.85286,-0.56638 2.04752,-0.84958 3.58398,-0.84961 0.98958,3e-5 2.08333,0.11722 3.28125,0.35156 l -0.52734,3.06641 c -0.72918,-0.13018 -1.41928,-0.19529 -2.07031,-0.19531 -1.06772,2e-5 -1.82293,0.22789 -2.26563,0.68359 -0.44271,0.45575 -0.66407,1.30862 -0.66406,2.55859 l 0,1.91407 4.04297,0 0,2.73437 -4.04297,0 0,18.00781 z"
         id="path2854" />
    </g>
  </g>
</svg>
