<?xml version="1.0" encoding="UTF-8" standalone="no"?>
<!-- Created with Inkscape (http://www.inkscape.org/) -->

<svg
   xmlns:dc="http://purl.org/dc/elements/1.1/"
   xmlns:cc="http://creativecommons.org/ns#"
   xmlns:rdf="http://www.w3.org/1999/02/22-rdf-syntax-ns#"
   xmlns:svg="http://www.w3.org/2000/svg"
   xmlns="http://www.w3.org/2000/svg"
   xmlns:sodipodi="http://sodipodi.sourceforge.net/DTD/sodipodi-0.dtd"
   xmlns:inkscape="http://www.inkscape.org/namespaces/inkscape"
   width="210mm"
   height="297mm"
   id="svg2"
   version="1.1"
   inkscape:version="0.47 r22583"
   sodipodi:docname="RayBan-Titel.svg">
  <defs
     id="defs4">
    <inkscape:perspective
       sodipodi:type="inkscape:persp3d"
       inkscape:vp_x="0 : 526.18109 : 1"
       inkscape:vp_y="0 : 1000 : 0"
       inkscape:vp_z="744.09448 : 526.18109 : 1"
       inkscape:persp3d-origin="372.04724 : 350.78739 : 1"
       id="perspective10" />
    <inkscape:perspective
       id="perspective2841"
       inkscape:persp3d-origin="0.5 : 0.33333333 : 1"
       inkscape:vp_z="1 : 0.5 : 1"
       inkscape:vp_y="0 : 1000 : 0"
       inkscape:vp_x="0 : 0.5 : 1"
       sodipodi:type="inkscape:persp3d" />
    <inkscape:perspective
       id="perspective2881"
       inkscape:persp3d-origin="0.5 : 0.33333333 : 1"
       inkscape:vp_z="1 : 0.5 : 1"
       inkscape:vp_y="0 : 1000 : 0"
       inkscape:vp_x="0 : 0.5 : 1"
       sodipodi:type="inkscape:persp3d" />
    <inkscape:perspective
       id="perspective2923"
       inkscape:persp3d-origin="0.5 : 0.33333333 : 1"
       inkscape:vp_z="1 : 0.5 : 1"
       inkscape:vp_y="0 : 1000 : 0"
       inkscape:vp_x="0 : 0.5 : 1"
       sodipodi:type="inkscape:persp3d" />
    <inkscape:perspective
       id="perspective3049"
       inkscape:persp3d-origin="0.5 : 0.33333333 : 1"
       inkscape:vp_z="1 : 0.5 : 1"
       inkscape:vp_y="0 : 1000 : 0"
       inkscape:vp_x="0 : 0.5 : 1"
       sodipodi:type="inkscape:persp3d" />
    <inkscape:perspective
       id="perspective3113"
       inkscape:persp3d-origin="0.5 : 0.33333333 : 1"
       inkscape:vp_z="1 : 0.5 : 1"
       inkscape:vp_y="0 : 1000 : 0"
       inkscape:vp_x="0 : 0.5 : 1"
       sodipodi:type="inkscape:persp3d" />
    <inkscape:perspective
       id="perspective3251"
       inkscape:persp3d-origin="0.5 : 0.33333333 : 1"
       inkscape:vp_z="1 : 0.5 : 1"
       inkscape:vp_y="0 : 1000 : 0"
       inkscape:vp_x="0 : 0.5 : 1"
       sodipodi:type="inkscape:persp3d" />
    <inkscape:perspective
       id="perspective3315"
       inkscape:persp3d-origin="0.5 : 0.33333333 : 1"
       inkscape:vp_z="1 : 0.5 : 1"
       inkscape:vp_y="0 : 1000 : 0"
       inkscape:vp_x="0 : 0.5 : 1"
       sodipodi:type="inkscape:persp3d" />
    <inkscape:perspective
       id="perspective3403"
       inkscape:persp3d-origin="0.5 : 0.33333333 : 1"
       inkscape:vp_z="1 : 0.5 : 1"
       inkscape:vp_y="0 : 1000 : 0"
       inkscape:vp_x="0 : 0.5 : 1"
       sodipodi:type="inkscape:persp3d" />
    <inkscape:perspective
       id="perspective3467"
       inkscape:persp3d-origin="0.5 : 0.33333333 : 1"
       inkscape:vp_z="1 : 0.5 : 1"
       inkscape:vp_y="0 : 1000 : 0"
       inkscape:vp_x="0 : 0.5 : 1"
       sodipodi:type="inkscape:persp3d" />
    <inkscape:perspective
       id="perspective3531"
       inkscape:persp3d-origin="0.5 : 0.33333333 : 1"
       inkscape:vp_z="1 : 0.5 : 1"
       inkscape:vp_y="0 : 1000 : 0"
       inkscape:vp_x="0 : 0.5 : 1"
       sodipodi:type="inkscape:persp3d" />
    <inkscape:perspective
       id="perspective3595"
       inkscape:persp3d-origin="0.5 : 0.33333333 : 1"
       inkscape:vp_z="1 : 0.5 : 1"
       inkscape:vp_y="0 : 1000 : 0"
       inkscape:vp_x="0 : 0.5 : 1"
       sodipodi:type="inkscape:persp3d" />
    <inkscape:perspective
       id="perspective3772"
       inkscape:persp3d-origin="0.5 : 0.33333333 : 1"
       inkscape:vp_z="1 : 0.5 : 1"
       inkscape:vp_y="0 : 1000 : 0"
       inkscape:vp_x="0 : 0.5 : 1"
       sodipodi:type="inkscape:persp3d" />
    <inkscape:perspective
       id="perspective3800"
       inkscape:persp3d-origin="0.5 : 0.33333333 : 1"
       inkscape:vp_z="1 : 0.5 : 1"
       inkscape:vp_y="0 : 1000 : 0"
       inkscape:vp_x="0 : 0.5 : 1"
       sodipodi:type="inkscape:persp3d" />
    <inkscape:perspective
       id="perspective3828"
       inkscape:persp3d-origin="0.5 : 0.33333333 : 1"
       inkscape:vp_z="1 : 0.5 : 1"
       inkscape:vp_y="0 : 1000 : 0"
       inkscape:vp_x="0 : 0.5 : 1"
       sodipodi:type="inkscape:persp3d" />
    <inkscape:perspective
       id="perspective3856"
       inkscape:persp3d-origin="0.5 : 0.33333333 : 1"
       inkscape:vp_z="1 : 0.5 : 1"
       inkscape:vp_y="0 : 1000 : 0"
       inkscape:vp_x="0 : 0.5 : 1"
       sodipodi:type="inkscape:persp3d" />
    <inkscape:perspective
       id="perspective3884"
       inkscape:persp3d-origin="0.5 : 0.33333333 : 1"
       inkscape:vp_z="1 : 0.5 : 1"
       inkscape:vp_y="0 : 1000 : 0"
       inkscape:vp_x="0 : 0.5 : 1"
       sodipodi:type="inkscape:persp3d" />
    <inkscape:perspective
       id="perspective3988"
       inkscape:persp3d-origin="0.5 : 0.33333333 : 1"
       inkscape:vp_z="1 : 0.5 : 1"
       inkscape:vp_y="0 : 1000 : 0"
       inkscape:vp_x="0 : 0.5 : 1"
       sodipodi:type="inkscape:persp3d" />
    <inkscape:perspective
       id="perspective4015"
       inkscape:persp3d-origin="0.5 : 0.33333333 : 1"
       inkscape:vp_z="1 : 0.5 : 1"
       inkscape:vp_y="0 : 1000 : 0"
       inkscape:vp_x="0 : 0.5 : 1"
       sodipodi:type="inkscape:persp3d" />
    <inkscape:perspective
       id="perspective4042"
       inkscape:persp3d-origin="0.5 : 0.33333333 : 1"
       inkscape:vp_z="1 : 0.5 : 1"
       inkscape:vp_y="0 : 1000 : 0"
       inkscape:vp_x="0 : 0.5 : 1"
       sodipodi:type="inkscape:persp3d" />
    <inkscape:perspective
       id="perspective3680"
       inkscape:persp3d-origin="0.5 : 0.33333333 : 1"
       inkscape:vp_z="1 : 0.5 : 1"
       inkscape:vp_y="0 : 1000 : 0"
       inkscape:vp_x="0 : 0.5 : 1"
       sodipodi:type="inkscape:persp3d" />
    <inkscape:perspective
       id="perspective3702"
       inkscape:persp3d-origin="0.5 : 0.33333333 : 1"
       inkscape:vp_z="1 : 0.5 : 1"
       inkscape:vp_y="0 : 1000 : 0"
       inkscape:vp_x="0 : 0.5 : 1"
       sodipodi:type="inkscape:persp3d" />
    <inkscape:perspective
       id="perspective3724"
       inkscape:persp3d-origin="0.5 : 0.33333333 : 1"
       inkscape:vp_z="1 : 0.5 : 1"
       inkscape:vp_y="0 : 1000 : 0"
       inkscape:vp_x="0 : 0.5 : 1"
       sodipodi:type="inkscape:persp3d" />
    <inkscape:perspective
       id="perspective3746"
       inkscape:persp3d-origin="0.5 : 0.33333333 : 1"
       inkscape:vp_z="1 : 0.5 : 1"
       inkscape:vp_y="0 : 1000 : 0"
       inkscape:vp_x="0 : 0.5 : 1"
       sodipodi:type="inkscape:persp3d" />
    <inkscape:perspective
       id="perspective3833"
       inkscape:persp3d-origin="0.5 : 0.33333333 : 1"
       inkscape:vp_z="1 : 0.5 : 1"
       inkscape:vp_y="0 : 1000 : 0"
       inkscape:vp_x="0 : 0.5 : 1"
       sodipodi:type="inkscape:persp3d" />
    <inkscape:perspective
       id="perspective3855"
       inkscape:persp3d-origin="0.5 : 0.33333333 : 1"
       inkscape:vp_z="1 : 0.5 : 1"
       inkscape:vp_y="0 : 1000 : 0"
       inkscape:vp_x="0 : 0.5 : 1"
       sodipodi:type="inkscape:persp3d" />
    <inkscape:perspective
       id="perspective3877"
       inkscape:persp3d-origin="0.5 : 0.33333333 : 1"
       inkscape:vp_z="1 : 0.5 : 1"
       inkscape:vp_y="0 : 1000 : 0"
       inkscape:vp_x="0 : 0.5 : 1"
       sodipodi:type="inkscape:persp3d" />
  </defs>
  <sodipodi:namedview
     id="base"
     pagecolor="#ffffff"
     bordercolor="#666666"
     borderopacity="1.0"
     inkscape:pageopacity="0.0"
     inkscape:pageshadow="2"
     inkscape:zoom="1.09"
     inkscape:cx="158.35448"
     inkscape:cy="706.91314"
     inkscape:document-units="px"
     inkscape:current-layer="layer1"
     showgrid="false"
     inkscape:window-width="1600"
     inkscape:window-height="1150"
     inkscape:window-x="-8"
     inkscape:window-y="-8"
     inkscape:window-maximized="1" />
  <metadata
     id="metadata7">
    <rdf:RDF>
      <cc:Work
         rdf:about="">
        <dc:format>image/svg+xml</dc:format>
        <dc:type
           rdf:resource="http://purl.org/dc/dcmitype/StillImage" />
        <dc:title />
      </cc:Work>
    </rdf:RDF>
  </metadata>
  <g
     inkscape:label="Ebene 1"
     inkscape:groupmode="layer"
     id="layer1">
    <rect
       style="fill:#000000;fill-opacity:1;stroke:none"
       id="rect3760"
       width="864.21051"
       height="810.52631"
       x="-84.975212"
       y="-35.514378"
       ry="10.761685" />
    <g
       id="jfx:title"
       transform="matrix(0.91731067,0,0,1,42.21471,-8.2568807)"
       inkscape:label="#g3709">
      <g
         id="text3178"
         style="font-size:252.24754333px;font-style:normal;font-weight:normal;fill:#000000;fill-opacity:1;stroke:none;font-family:Aharoni;-inkscape-font-specification:Aharoni"
         transform="matrix(0.68228684,0,0,0.65342953,-6.0759779,-113.57306)">
        <path
           id="path3183"
           d="m 110.5,265.1875 c -22.945472,0.54422 -45.896468,-0.1109 -68.84375,0.15625 0,124.66667 0,249.33333 0,374 19.90625,0 39.8125,0 59.71875,0 0,-78.39583 0,-156.79167 0,-235.1875 9.71164,15.11846 19.48776,30.19547 29.25,45.28125 25.02083,0 50.04167,0 75.0625,0 -18.52211,-24.20736 -37.13237,-48.34735 -55.5625,-72.625 22.85052,-9.64319 34.83328,-36.32041 30.80358,-60.27224 -2.90401,-24.10085 -21.76773,-46.3931 -46.43977,-49.64582 -7.88697,-1.54311 -15.95673,-1.84837 -23.98881,-1.70694 z m -5.34375,49.25 c 9.64549,-0.49401 18.81425,9.93249 13.34375,19 -3.34882,6.01603 -11.64565,8.35417 -17.75,7.09375 1.30269,-8.43475 0.35658,-17.35248 0.59375,-25.96875 1.27147,0.008 2.54156,-0.0988 3.8125,-0.125 z"
           style="fill:#0000ff" />
        <path
           id="path3185"
           d="m 254.9375,315.46875 c -35.55436,0.0934 -65.50604,33.64253 -63.68005,68.71847 -0.88953,31.02724 21.24672,61.394 52.15536,67.53361 14.21884,3.44514 30.0547,0.75012 42.49344,-5.81458 6.24826,6.87397 16.43379,2.38047 24.43747,3.44491 10.15636,0.0545 20.31311,0.27456 30.46878,0.0238 0,-43.41667 0,-86.83333 0,-130.25 -18.73958,0 -37.47917,0 -56.21875,0 1.45965,4.96364 -1.60471,2.02858 -4.125,1.03125 -8.01739,-3.44168 -16.80551,-4.92545 -25.53125,-4.6875 z m 13.40625,50.75 c 14.98946,-0.29262 23.80027,21.50366 11.875,31.25 -8.88288,8.33334 -25.88432,5.46546 -29.65625,-6.6875 -4.53793,-11.57833 4.77882,-25.6976 17.78125,-24.5625 z"
           style="fill:#0000ff" />
        <path
           id="path3187"
           d="m 255.5,219.0625 c 45.87506,68.97366 91.53205,138.11969 137.28125,207.1875 -14.30592,26.78471 -28.48121,53.63967 -42.9375,80.34375 21.15625,0 42.3125,0 63.46875,0 33.42455,-62.50762 66.80988,-125.03648 100.375,-187.46875 -21.52083,0 -43.04167,0 -64.5625,0 -8.62455,16.94795 -17.21864,33.91145 -25.8125,50.875 -34.59475,-51.35349 -69.18152,-102.71237 -103.78125,-154.0625 -22.04167,0 -44.08333,0 -66.125,0 0.69792,1.04167 1.39583,2.08333 2.09375,3.125 z"
           style="fill:#0000ff" />
        <path
           id="path3189"
           d="m 570.9375,265.15625 c -20.24618,0.61001 -40.50095,-0.12985 -60.75,0.21875 0,61.39583 0,122.79167 0,184.1875 34.11326,-1.5841 68.63766,2.76256 102.46875,-2.8125 21.53243,-5.24928 40.52236,-24.08884 41.34375,-47.03125 2.96028,-20.14611 -7.07659,-43.09455 -25.53125,-51.25 13.69127,-17.51887 13.07052,-43.91242 1.9375,-62.71875 -11.14083,-16.70728 -32.79392,-21.52517 -51.8749,-20.58211 -2.53153,-0.0286 -5.06232,-0.066 -7.59385,-0.0116 z m 2,49.25 c 7.22646,-0.6949 12.811,8.97525 7.0625,14.1875 -2.50691,2.41176 -7.60995,3.6689 -10.15625,2.65625 0.62655,-5.3872 -0.85654,-12.31774 0.625,-16.71875 0.82348,-0.0223 1.64544,-0.10472 2.46875,-0.125 z m -2.25,66.3125 c 7.66435,0.72025 18.79789,-2.1933 23.375,5.90625 2.88963,6.27994 -3.14407,13.43521 -9.71875,12.71875 -4.77474,0.73266 -9.61484,0.85101 -14.4375,0.84375 0,-6.48958 0,-12.97917 0,-19.46875 l 0.78125,0 z"
           style="fill:#0000ff" />
        <path
           id="path3191"
           d="m 721.5625,315.46875 c -36.06514,-0.0457 -66.33238,34.6573 -63.75,70.28125 -0.17871,30.13881 21.44841,59.53353 51.50347,65.79655 14.41454,3.62561 30.66099,1.25838 43.12153,-5.8903 5.61709,7.35046 15.82273,2.77607 23.4375,3.625 10.49982,-0.0481 21.00682,0.63271 31.5,0 0,-43.38542 0,-86.77083 0,-130.15625 -18.19792,0 -36.39583,0 -54.59375,0 -1.74557,1.55322 -1.41391,4.06489 -4,1.84375 -8.48034,-4.02463 -17.85161,-5.75872 -27.21875,-5.5 z m 13.21875,50.75 c 14.667,-0.34187 23.73801,20.55762 12.625,30.625 -8.63501,9.08947 -26.53789,6.34018 -30.3125,-6.1875 -4.50263,-11.55052 4.93406,-25.50421 17.6875,-24.4375 z"
           style="fill:#0000ff" />
        <path
           id="path3193"
           d="m 902.46875,316.6875 c -9.72744,-0.17267 -19.38293,2.74087 -27.75,7.5 -2.91044,-6.02826 -10.30565,-6.4767 -16,-5.1875 -13.16245,0.49934 -26.33683,-0.23001 -39.5,0.21875 0,43.40625 0,86.8125 0,130.21875 18.73958,0 37.47917,0 56.21875,0 1.5368,-26.43508 -2.30508,-53.31518 1.96875,-79.46875 4.31565,-7.26323 18.6915,-8.60495 20.8125,0.9375 2.69281,16.46099 0.1806,33.37619 1.15625,50.03125 0,75.09375 0,150.1875 0,225.28125 18.80208,0 37.60417,0 56.40625,0 -0.48251,-96.55766 0.95787,-193.15622 -0.78125,-289.6875 -3.02309,-22.73965 -24.82527,-40.76858 -47.8125,-39.8125 -1.57251,-0.0452 -3.14595,-0.10489 -4.71875,-0.0312 z"
           style="fill:#0000ff" />
      </g>
      <g
         id="text3178-8"
         style="font-size:252.24754333px;font-style:normal;font-weight:normal;fill:#000080;fill-opacity:1;stroke:none;font-family:Aharoni;-inkscape-font-specification:Aharoni"
         transform="matrix(0.68228684,0,0,0.65342953,-6.6944305,-113.91507)">
        <path
           id="path3183-5"
           d="m 109.4661,269.1875 c -20.751787,0.5382 -41.509874,-0.10018 -62.263684,0.15625 0,122 0,244 0,366 16.537696,0 33.075393,0 49.613089,0 0,-81.60417 0,-163.20833 0,-244.8125 11.303975,18.32064 22.648505,36.61402 33.994715,54.90625 20.70459,0 41.40919,0 62.11379,0 -17.16821,-23.48145 -34.55039,-46.79282 -51.59162,-70.375 24.69189,-7.75707 37.52746,-38.3166 30.93698,-63.3125 -4.54362,-22.77682 -24.45773,-41.37034 -46.91509,-41.90625 -5.26569,-0.65244 -10.58849,-0.75379 -15.88818,-0.65625 z m -4.22686,41.1875 c 11.8616,-0.37616 22.18818,15.13159 14.71905,25.84375 -5.08016,8.07089 -15.74028,10.32064 -24.25196,7.46875 2.084574,-10.86324 0.653926,-22.09209 1.16913,-33.125 2.789049,0.0248 5.57928,-0.023 8.36378,-0.1875 z"
           style="fill:#000080" />
        <path
           id="path3185-7"
           d="m 255,319.46875 c -34.24201,-0.0846 -63.13194,33.93382 -59.78125,67.6875 0.16983,33.0549 29.74136,64.08089 63.4375,62 9.91662,-0.33614 19.58892,-3.36701 28.21875,-8.25 4.97642,8.01022 15.53957,3.70022 23.1875,4.28125 8.90132,0.3583 17.83564,0.33895 26.75,0.25 0,-40.77083 0,-81.54167 0,-122.3125 -16.10692,0.26991 -32.56592,-0.52243 -48.46875,0.375 -3.31266,5.34673 -9.44703,-0.23508 -13.59375,-1.21875 -6.37732,-2.13508 -13.04432,-2.99126 -19.75,-2.8125 z m 12.9375,42.59375 c 17.84001,-0.61973 29.13466,24.41256 16.375,37.1875 -10.45005,11.75022 -33.47562,8.05003 -37.8125,-7.75 -4.91264,-13.87353 6.49347,-30.21983 21.4375,-29.4375 z"
           style="fill:#000080" />
        <path
           id="path3187-6"
           d="M 260.875,219.96875 C 306.48722,288.5783 351.8501,357.35336 397.40625,426 383.86466,451.57456 370.19502,477.0807 356.5,502.59375 c 18.14583,0 36.29167,0 54.4375,0 C 442.94127,442.76171 474.91703,382.91463 507,323.125 c -18.47917,0 -36.95833,0 -55.4375,0 -9.24867,18.25067 -18.5085,36.4957 -27.75,54.75 -35.4962,-52.62731 -70.94858,-105.28421 -106.40625,-157.9375 -18.84374,0.012 -37.68758,-0.0291 -56.53125,0.0312 z"
           style="fill:#000080" />
        <path
           id="path3189-1"
           d="m 580.40625,269.09375 c -22.06986,0.47055 -44.14622,0.11378 -66.21875,0.25 0,58.67708 0,117.35417 0,176.03125 34.012,-1.39176 68.75848,3.69433 102.1875,-3.875 19.50572,-6.41207 34.85292,-25.76714 34.09375,-46.75 0.98779,-18.77734 -9.80023,-38.84793 -28.4375,-44.71875 17.40245,-18.43766 16.91231,-50.49456 -0.59375,-68.59375 -11.0751,-9.99165 -26.61873,-12.66417 -41.03125,-12.34375 z m -6.8125,41.28125 c 10.80539,-0.82025 17.65745,15.67664 8.1875,21.9375 -4.58385,3.41857 -11.17818,4.52921 -16.25,1.46875 1.46672,-7.64592 -1.37444,-15.84322 2.03125,-23.125 2.01061,-0.0905 4.01928,-0.22288 6.03125,-0.28125 z m -5.6875,66.34375 c 9.70068,0.4933 22.71547,-2.29466 29.09375,7.03125 5.94998,8.94479 -3.60734,21.27298 -13.6875,19.75 -5.74133,0.83992 -11.60624,0.65986 -17.40625,0.6875 0,-9.15625 0,-18.3125 0,-27.46875 l 1,0 1,0 z"
           style="fill:#000080" />
        <path
           id="path3191-8"
           d="m 721.625,319.46875 c -34.93076,-0.0861 -63.80559,34.88507 -59.78125,69.125 0.88361,32.34866 29.77045,62.00924 62.59375,60.625 10.27159,-0.2117 20.42383,-3.3253 29.125,-8.78125 3.5212,8.01069 13.61512,4.89825 20.375,4.71875 9.80372,0.17064 19.62789,0.55359 29.4375,0.28125 0,-40.76042 0,-81.52083 0,-122.28125 -16.2519,0.4058 -33.10628,-1.01256 -49,0.6875 -4.48078,4.94384 -10.20133,-1.62793 -15.15625,-2.21875 -5.69801,-1.64449 -11.6676,-2.29894 -17.59375,-2.15625 z m 12.78125,42.59375 c 17.44077,-0.60687 28.99379,23.41312 17.09375,36.4375 -10.19494,12.87252 -34.79347,8.91527 -38.65625,-7.78125 -4.33764,-13.62173 6.95166,-29.32085 21.5625,-28.65625 z"
           style="fill:#000080" />
        <path
           id="path3193-9"
           d="m 905.96875,320.5 c -11.73574,-0.32284 -23.29153,2.94975 -33.1875,9.34375 -0.71004,-7.36416 -9.16889,-8.60183 -14.9375,-6.8125 -11.53848,0.37991 -23.08401,-0.12446 -34.625,0.0937 0,40.77083 0,81.54167 0,122.3125 16.13542,0 32.27083,0 48.40625,0 1.4521,-26.08325 -3.43615,-52.96074 2.96875,-78.46875 6.11843,-9.4963 24.62583,-9.46088 27.46875,2.8125 3.06278,22.57613 0.21775,45.45469 1.3125,68.15625 0,68.09375 0,136.1875 0,204.28125 16.13542,0 32.27083,0 48.40625,0 -0.6326,-95.72326 1.27722,-191.49807 -1.0625,-287.1875 -3.75042,-20.41216 -24.26139,-35.503 -44.75,-34.53125 z"
           style="fill:#000080" />
      </g>
      <g
         id="text3178-8-2"
         style="font-size:252.24754333px;font-style:normal;font-weight:normal;fill:#00ffff;fill-opacity:1;stroke:none;font-family:Aharoni;-inkscape-font-specification:Aharoni"
         transform="matrix(0.68228684,0,0,0.65342953,-7.2335723,-113.97157)">
        <path
           id="path3183-5-7"
           d="m 110.875,273.15625 c -19.891963,0.56071 -39.791774,-0.0135 -59.6875,0.125 0,119.35417 0,238.70833 0,358.0625 13.875,0 27.75,0 41.625,0 0,-84.95833 0,-169.91667 0,-254.875 13.38117,21.65884 26.79593,43.29721 40.15625,64.96875 17.34375,0 34.6875,0 52.03125,0 -16.57654,-22.88343 -33.83662,-45.53523 -50,-68.46875 23.58713,-5.07046 37.84077,-30.82222 34.78125,-53.90625 -2.15829,-23.80554 -22.74401,-46.15671 -47.59007,-45.49195 -3.76082,-0.33597 -7.53967,-0.53377 -11.31618,-0.4143 z M 106,306.34375 c 16.88406,-0.13048 27.66476,24.07884 14.46875,35.625 -7.42889,7.54445 -19.82333,8.66041 -29.3125,4.46875 3.036862,-13.06271 0.917141,-26.61013 1.875,-39.875 4.323347,0.004 8.65098,0.0315 12.96875,-0.21875 z"
           style="fill:#00ffff" />
        <path
           id="path3185-7-9"
           d="m 255.125,323.46875 c -34.37258,0.0874 -61.76437,35.94997 -55.63395,69.1839 2.96289,31.88521 36.18879,59.28392 68.3527,51.34735 7.26042,-1.51388 14.05748,-4.6809 20.40625,-8.4375 2.53987,7.34788 11.65547,6.94988 17.84121,5.7725 8.90454,-0.49419 17.81153,0.54903 26.72129,0.165 0,-38.11458 0,-76.22917 0,-114.34375 -15.67944,0.97289 -32.10667,-2.50666 -47.25,2.40625 -8.0667,0.18543 -14.8072,-6.30435 -23.0625,-5.84375 -2.45106,-0.22593 -4.91362,-0.35278 -7.375,-0.25 z m 12.75,34.375 c 21.49785,-0.51117 34.68571,29.92784 18.96875,44.9375 -13.47176,13.91447 -41.94171,7.08684 -45.09375,-12.875 -3.26763,-15.62089 9.81466,-32.58688 26.125,-32.0625 z"
           style="fill:#00ffff" />
        <path
           id="path3187-6-5"
           d="m 272,223.96875 c -7.85725,-0.92257 3.34124,8.37722 4.42291,12.26129 41.87618,63.15844 83.69897,126.35226 125.60834,189.48871 -12.90918,24.29639 -25.868,48.60185 -38.9375,72.875 15.15625,0 30.3125,0 45.46875,0 30.58237,-57.17345 61.15729,-114.35112 91.84375,-171.46875 -15.46875,0 -30.9375,0 -46.40625,0 -9.90987,19.5345 -19.78929,39.08454 -29.6875,58.625 C 387.89019,331.86546 351.66148,277.85042 315.28125,223.9375 300.85417,223.9465 286.42701,223.9128 272,223.9687 z"
           style="fill:#00ffff" />
        <path
           id="path3189-1-4"
           d="m 576.6875,273.15625 c -19.4981,0.37256 -39.00019,0.058 -58.5,0.1875 0,55.95833 0,111.91667 0,167.875 34.36117,-1.46928 70.12296,5.25721 103.3125,-6.09375 24.22844,-11.45887 33.28999,-46.03768 17.21875,-67.78125 -5.49083,-7.95874 -14.75362,-13.47497 -23.65625,-15.5625 20.42928,-17.2807 21.65605,-53.94528 -0.3125,-70.375 -10.96067,-7.77197 -25.00222,-8.65623 -38.0625,-8.25 z m -1.96875,33.15625 c 14.36047,-0.17128 21.65187,22.64412 8.5625,29.96875 -6.64881,4.29919 -15.88993,4.52492 -22.1875,-0.53125 2.3203,-9.53264 -1.55347,-20.31874 3.875,-28.96875 3.24964,-0.16273 6.49952,-0.32717 9.75,-0.46875 z m 6.6875,66.21875 c 10.6205,-0.35818 23.64774,8.14419 21.1875,20.21875 -1.93753,10.74114 -14.01325,16.8362 -24.2799,15.23938 -5.46305,0.33047 -10.93859,0.15262 -16.4076,0.19812 0,-11.83333 0,-23.66667 0,-35.5 6.50037,0.0875 13.00355,0.1323 19.5,-0.15625 z"
           style="fill:#00ffff" />
        <path
           id="path3191-8-3"
           d="m 721.71875,323.46875 c -34.45003,0.0213 -61.92325,36.15157 -55.59375,69.46875 3.03962,32.13736 36.92259,59.33837 69.0625,50.90625 7.37627,-1.29461 14.84194,-6.16055 20.53125,-9.0625 0.36257,5.95575 7.01934,8.75142 12.25,6.84375 10.45379,-0.82545 20.93998,-0.0611 31.40625,0 0,-38.11458 0,-76.22917 0,-114.34375 -16.59893,0.093 -33.66974,-1.78581 -49.8125,2.21875 -7.90041,-1.69379 -15.017,-6.85501 -23.49737,-5.97879 -1.44426,-0.0821 -2.89968,-0.11271 -4.34638,-0.0525 z m 13.375,34.40625 c 20.75679,0.0593 33.56788,29.03836 18.90625,44.09375 -12.95842,15.01414 -42.47027,8.17429 -45.65625,-12.0625 -3.39337,-15.92207 10.17662,-32.96251 26.75,-32.03125 z"
           style="fill:#00ffff" />
        <path
           id="path3193-9-1"
           d="m 902.8125,324.34375 c -12.19329,0.19439 -24.6973,6.31456 -33.875,12.40625 2.19746,-5.10062 -1.79068,-12.60182 -7.99601,-10.1608 -11.20923,1.07804 -22.48582,0.48552 -33.72274,0.37955 0,38.16667 0,76.33333 0,114.5 13.52829,-0.43967 27.10071,0.74475 40.59375,-0.65625 1.12791,-25.67178 -4.35892,-52.61307 4.25,-77.25 8.25803,-11.3521 29.89041,-9.52997 33.75,4.84375 3.68899,33.76401 0.18777,67.7639 1.5625,101.625 0,56.0625 0,112.125 0,168.1875 13.46875,0 26.9375,0 40.40625,0 -0.91338,-95.01545 1.85072,-190.08864 -1.5625,-285.0625 -5.00921,-18.6476 -24.6973,-30.35086 -43.40625,-28.8125 z"
           style="fill:#00ffff" />
      </g>
      <g
         id="text3178-8-2-2"
         style="font-size:252.24754333px;font-style:normal;font-weight:normal;fill:#008080;fill-opacity:1;stroke:none;font-family:Aharoni;-inkscape-font-specification:Aharoni"
         transform="matrix(0.68228684,0,0,0.65342953,-7.2487234,-113.90439)">
        <path
           id="path3183-5-7-3"
           d="m 111,277.15625 c -18.600394,0.55869 -37.208728,1.9e-4 -55.8125,0.125 0,116.6875 0,233.375 0,350.0625 11.208333,0 22.416667,0 33.625,0 0,-88.3125 0,-176.625 0,-264.9375 15.46048,25.00909 30.94881,50.00098 46.375,75.03125 13.96875,0 27.9375,0 41.90625,0 -16.26693,-22.41158 -33.05545,-44.47795 -48.96875,-67.21875 25.17316,-1.71069 41.9952,-29.0684 37.4375,-52.875 -2.80676,-22.01918 -23.2496,-41.5808 -46.09159,-39.9719 -2.81907,-0.20407 -5.64464,-0.32227 -8.47091,-0.2156 z m -5.125,25.1875 c 19.71133,-0.69021 32.56422,27.22174 18.5625,41.34375 -9.39499,10.57111 -26.024347,11.59176 -38,5.0625 4.419759,-15.03382 1.09981,-30.84839 2.9375,-46.1875 5.499992,-0.0252 11.00597,0.0994 16.5,-0.21875 z"
           style="fill:#008080" />
        <path
           id="path3185-7-9-3"
           d="m 259.8125,327.375 c -23.42564,-1.75288 -44.96527,14.39452 -53.1875,35.6875 -10.07992,24.14644 -0.7163,54.83829 21.34375,69.03125 14.68982,10.66056 35.00617,12.21162 51.15625,3.8125 4.03555,-1.94747 7.80476,-4.14261 11.625,-6.4375 -0.65416,6.13912 5.36454,9.54844 10.75,8.53125 8.97135,-1.62485 18.21427,-0.32027 27.3125,-0.40625 0,-35.4375 0,-70.875 0,-106.3125 -15.08423,-0.17664 -30.5382,-1.40674 -45.15625,2.21875 -8.27028,-0.84357 -15.38431,-6.51709 -23.84375,-6.125 z m 8.59375,26.375 c 23.59992,-0.0406 38.59033,32.36159 22.90625,50.1875 -14.17167,17.70119 -47.82188,11.10301 -53.125,-11.3125 -5.21392,-18.77459 10.54659,-39.67758 30.21875,-38.875 z"
           style="fill:#008080" />
        <path
           id="path3187-6-5-4"
           d="m 275.59375,227.96875 c 11.6568,16.58236 22.34247,34.04249 33.82546,50.84154 32.41985,48.88116 64.79103,97.79476 97.23704,146.65846 -12.17961,23.10631 -24.567,46.10045 -36.9375,69.125 12.15625,0 24.3125,0 36.46875,0 29.17475,-54.50199 58.30509,-109.02783 87.59375,-163.46875 -12.44792,0 -24.89583,0 -37.34375,0 -10.54098,20.83368 -21.08759,41.66452 -31.625,62.5 -37.31243,-55.16599 -74.4043,-110.48068 -111.65625,-165.6875 -12.52081,0.0137 -25.0418,-0.0311 -37.5625,0.0312 z"
           style="fill:#008080" />
        <path
           id="path3189-1-4-1"
           d="m 579.25,277.09375 c -19.01832,0.43858 -38.04178,0.13578 -57.0625,0.25 0,53.23958 0,106.47917 0,159.71875 33.2034,-1.01545 68.07416,5.50911 99.78125,-6.65625 23.49735,-12.84729 28.65315,-50.55667 7,-67.59375 -6.53124,-5.25899 -14.81475,-7.51463 -22.90625,-9.0625 22.75988,-13.043 28.31656,-48.54633 8.9375,-66.9375 -9.53146,-8.70451 -23.39385,-9.90098 -35.75,-9.71875 z m -4.59375,25.21875 c 17.45894,-0.42472 26.52646,25.61465 12.65625,36.125 -8.77477,6.90293 -22.67352,6.92895 -30.6875,-1.1875 3.22789,-11.13878 -1.76669,-24.51033 6.09375,-34.34375 3.97696,-0.23711 7.95742,-0.41945 11.9375,-0.59375 z M 581.875,368.5 c 13.35347,-0.48797 28.06412,11.54246 24.5,25.75 -2.96502,13.62868 -18.53766,19.80995 -31.28063,17.87882 -5.72793,0.1322 -11.45898,0.0233 -17.18812,0.0587 0,-14.52083 0,-29.04167 0,-43.5625 7.98878,0.1234 15.98452,0.23713 23.96875,-0.125 z"
           style="fill:#008080" />
        <path
           id="path3191-8-3-1"
           d="m 724.71875,327.28125 c -22.73872,-0.9819 -43.58554,15.07912 -51.5625,35.9375 -10.39224,25.07755 0.11174,56.63968 23.59375,70.3125 15.68803,10.30086 36.94652,10.38332 52.69161,0.0859 3.02134,-0.89638 10.47582,-7.38816 10.22444,-3.48896 -2.49535,5.01224 3.37125,10.19852 8.0527,7.49683 9.20576,-0.69039 18.44058,-0.2465 27.65625,-0.0625 0,-35.4375 0,-70.875 0,-106.3125 -15.60842,-0.39034 -31.52878,-0.93686 -46.78125,2.125 -7.95915,-2.06034 -15.49465,-6.4934 -23.875,-6.09375 z m 9.8125,26.53125 c 23.85248,-0.59936 39.17909,32.19542 23.21875,50.0625 -14.24318,18.006 -48.42298,10.93348 -53.125,-12 -4.74433,-18.33062 10.71395,-38.66808 29.90625,-38.0625 z"
           style="fill:#008080" />
        <path
           id="path3193-9-1-3"
           d="m 904.6875,328.25 c -16.85314,-0.15702 -30.97123,10.19348 -44.59375,18.78125 1.71641,-4.88084 7.62454,-11.07786 4.34375,-16.3125 -6.31689,-0.52297 -13.43098,1.02359 -20.09375,0.5 -4.00286,1.03725 -12.43456,-2.56468 -13.125,1.8125 0.18798,34.68702 -0.37564,70.12564 0.28125,104.34375 10.80147,-0.12238 21.61884,0.55063 32.40625,-0.25 0.78458,-25.43943 -4.82472,-52.61492 5.46875,-76.65625 10.40697,-13.61535 36.61943,-9.986 40.4375,7.5625 3.72801,39.57217 0.12778,79.34585 1.5625,119 0,49.0625 0,98.125 0,147.1875 10.79167,0 21.58333,0 32.375,0 -1.0135,-93.83315 2.22819,-187.77161 -1.84375,-281.53125 -5.00122,-15.37775 -21.3905,-25.08928 -37.21875,-24.4375 z"
           style="fill:#008080" />
      </g>
      <g
         id="text3178-8-2-2-8"
         style="font-size:252.24754333px;font-style:normal;font-weight:normal;fill:#00ff00;fill-opacity:1;stroke:none;font-family:Aharoni;-inkscape-font-specification:Aharoni"
         transform="matrix(0.68228684,0,0,0.65342953,-8.191701,-114.0289)">
        <path
           id="path3183-5-7-3-7"
           d="m 111.15625,281.15625 c -17.318835,0.55681 -34.646285,0.003 -51.96875,0.125 0,114.02083 0,228.04167 0,342.0625 8.541667,0 17.083333,0 25.625,0 0,-90.29167 0,-180.58333 0,-270.875 -5.417202,-1.43329 -0.791607,-6.73548 -0.90625,-10.59375 2.276183,-14.34169 -0.462663,-28.99288 1.9375,-43.3125 11.746234,1.058 25.4045,-3.3407 35.46875,4.65625 13.74319,9.57584 18.31184,32.43943 5,44.28125 -9.49031,10.0436 -25.91405,11.31296 -37.8125,6.8125 16.2958,26.37889 32.63172,52.73298 48.90625,79.125 10.58333,0 21.16667,0 31.75,0 C 152.87378,411.19559 136.34796,389.1383 120.625,366.5 c 22.51927,2.6652 41.78476,-18.63569 41.65625,-40.25 1.33563,-23.71943 -19.81622,-47.36387 -44.09375,-44.9375 -2.34295,-0.0825 -4.68624,-0.28029 -7.03125,-0.15625 z"
           style="fill:#00ff00" />
        <path
           id="path3185-7-9-3-4"
           d="m 256.5,331.09375 c -31.37996,0.15487 -55.9629,33.61838 -48.90625,63.59375 4.52809,25.30165 29.941,46.46151 55.96875,42.15625 12.34428,-2.10236 22.69165,-9.34614 33.1875,-15.6875 -2.19595,3.81056 -4.31432,11.71447 1.75,13.03125 8.68544,-1.27376 17.54253,-1.05782 26.3125,-0.65625 0,-32.78125 0,-65.5625 0,-98.34375 -14.26273,-0.62791 -28.67631,-0.26324 -42.6875,2.15625 -8.5992,-1.56221 -16.61841,-6.73992 -25.625,-6.25 z m 9.84375,18.625 c 25.40016,-1.78271 43.90483,30.16174 31.5,51.875 -10.86723,20.75509 -42.89329,21.4088 -57.28125,4.28125 -13.00967,-14.69531 -7.71413,-39.32256 8,-50 5.15045,-3.74254 11.38739,-5.97111 17.78125,-6.15625 z"
           style="fill:#00ff00" />
        <path
           id="path3187-6-5-4-2"
           d="m 283.125,231.96875 c 42.71631,64.41826 85.39418,128.8622 128.15625,193.25 -11.40793,21.92356 -23.26856,43.56423 -34.90625,65.375 9.14583,0 18.29167,0 27.4375,0 27.74852,-51.83487 55.48587,-103.67575 83.3125,-155.46875 -9.41667,0 -18.83333,0 -28.25,0 -11.18711,22.1252 -22.37747,44.24875 -33.5625,66.375 -38.18427,-56.45978 -76.15615,-113.06277 -114.28125,-169.5625 -9.30203,0.0162 -18.60441,-0.0348 -27.90625,0.0312 z"
           style="fill:#00ff00" />
        <path
           id="path3189-1-4-1-7"
           d="m 580.75,281.0625 c -18.18438,0.47371 -36.37508,0.17128 -54.5625,0.28125 0,50.55208 0,101.10417 0,151.65625 31.57637,-0.61887 64.84597,5.34314 94.90625,-6.71875 21.67254,-12.7318 24.49359,-49.63474 1.78125,-62.8125 -8.80754,-5.03489 -19.14853,-5.80036 -28.875,-8.125 18.43503,-5.44744 30.66976,-24.53833 28.625,-43.46875 -0.81412,-13.25139 -9.95591,-26.08622 -23.5,-28.875 -6.0078,-1.595 -12.16349,-2.08967 -18.375,-1.9375 z m -6.21875,17.25 c 20.32369,-0.82608 31.69058,28.80132 16.625,42.15625 -10.71569,9.90018 -29.69571,9.31155 -39,-2.0625 4.05797,-12.83216 -1.74587,-28.66444 8.5,-39.375 4.62058,-0.31636 9.25004,-0.48076 13.875,-0.71875 z M 582.5,364.46875 c 15.89057,-0.48977 32.3482,15.01176 27.59375,31.46875 -3.99574,15.68634 -22.22578,22.65306 -37.0624,20.20158 -6.37443,0.10176 -12.75012,0.0244 -19.1251,0.0484 0,-17.20833 0,-34.41667 0,-51.625 9.53109,0.13484 19.0676,0.37178 28.59375,-0.0937 z"
           style="fill:#00ff00" />
        <path
           id="path3191-8-3-1-7"
           d="m 722.5625,331.125 c -31.50908,0.357 -55.8581,34.49778 -48.125,64.6875 4.99808,25.57166 31.63922,46.37534 57.96875,40.65625 9.6423,-1.77192 17.30147,-8.81444 26.46875,-11.59375 4.59941,-0.10518 5.16993,5.41754 4.53125,8.65625 3.04835,2.08255 7.33981,-1.25467 10.87402,-0.21872 5.69777,-0.14991 11.39801,0.034 17.09473,0.15622 0,-32.78125 0,-65.5625 0,-98.34375 -14.65109,-0.59846 -29.52945,0.0369 -43.90625,2.09375 -8.22831,-2.40443 -16.18187,-6.51219 -24.90625,-6.09375 z m 12.34375,18.59375 c 25.42909,-0.13416 42.44315,32.83234 28.3125,53.78125 -13.02281,20.51574 -47.5805,18.84779 -59.15625,-2.28125 -11.60572,-18.80689 1.38026,-45.81036 22.40625,-50.53125 2.74002,-0.74897 5.60164,-0.90448 8.4375,-0.96875 z"
           style="fill:#00ff00" />
        <path
           id="path3193-9-1-3-9"
           d="m 904.8125,332.25 c -19.8606,0.1033 -35.30699,14.56192 -51.71875,23.875 0.0486,-8.04109 6.54456,-14.13117 8.03125,-21.4375 -8.60091,0.49514 -17.23706,1.03182 -25.875,0.34375 0.13711,32.78091 -0.40535,65.56616 0.25,98.34375 7.98698,-0.34624 17.33273,1.00851 24.5,-0.53125 0.0409,-24.87154 -4.54226,-51.50006 6.21875,-74.84375 11.89728,-16.19063 42.56184,-11.58093 47.375,8.53125 4.21068,45.37217 0.17849,91.01981 1.78125,136.5 0,42.39583 0,84.79167 0,127.1875 8.10417,0 16.20833,0 24.3125,0 -0.99929,-92.49976 2.54445,-185.1148 -2.03125,-277.53125 -4.93587,-13.01718 -19.27001,-20.99772 -32.84375,-20.4375 z"
           style="fill:#00ff00" />
      </g>
      <g
         id="text3178-8-2-2-8-3"
         style="font-size:252.24754333px;font-style:normal;font-weight:normal;fill:#ffff00;fill-opacity:1;stroke:none;font-family:Aharoni;-inkscape-font-specification:Aharoni"
         transform="matrix(0.68228684,0,0,0.65342953,-8.3316204,-114.39216)">
        <path
           id="path3183-5-7-3-7-1"
           d="m 108.15625,285.25 c -14.987472,0.39872 -29.979508,-0.0851 -44.96875,0.0312 0,111.35417 0,222.70833 0,334.0625 5.516959,-0.69069 13.7858,1.36777 17.624006,-1 -0.223082,-87.88108 0.445474,-175.9633 -0.342756,-263.7187 -5.35984,-5.28734 0.858303,-12.29803 0.0625,-18.5 1.09396,-13.94828 -1.052254,-28.16174 2,-41.90625 14.077656,1.77583 30.88568,-3.67779 42.5625,6.84375 15.59899,11.65309 18.37642,38.8165 2.15625,51.09375 -8.21362,7.14503 -19.63783,9.66505 -30.28125,8.28125 14.23916,22.98095 28.45796,45.9745 42.625,69 7.20833,0 14.41667,0 21.625,0 -16.66082,-22.56545 -33.20261,-45.20131 -49.1875,-68.25 15.34971,5.22491 33.07752,-1.94426 40.9375,-16 13.66009,-21.43964 0.29422,-54.06004 -24.6875,-59.34375 -6.60897,-1.17531 -13.44091,-0.49827 -20.125,-0.59375 z"
           style="fill:#ffff00" />
        <path
           id="path3185-7-9-3-4-9"
           d="m 256.625,335.09375 c -31.34848,0.005 -54.77666,36.54842 -43.46875,65.34375 7.2869,21.92191 32.10517,38.50321 55.03125,31.1875 13.90614,-4.50274 25.38866,-13.99455 38.125,-20.875 -1.37428,6.58168 -7.86853,11.60699 -7.625,18.46875 4.23836,1.63469 10.13462,-0.57168 15.0625,-0.125 2.85327,0.21673 8.38295,2.30554 7.40625,-2.84375 -0.81775,-29.03646 -0.1032,-58.15221 -0.34375,-87.21875 -13.78069,-0.9142 -27.60836,1.36263 -41.25,1.875 -7.72258,-1.71199 -14.85397,-6.14054 -22.9375,-5.8125 z m 10.8125,10.5625 c 27.80703,-0.8703 47.69288,34.06512 33.90625,57.875 -11.96739,22.96754 -47.9026,24.32878 -63.78125,5 -16.94107,-18.92879 -6.30756,-52.52326 17.15625,-60.5 4.0507,-1.53596 8.37226,-2.33197 12.71875,-2.375 z"
           style="fill:#ffff00" />
        <path
           id="path3187-6-5-4-2-8"
           d="m 350.5,326.40625 c 21.80402,32.85286 43.56528,65.73427 65.40625,98.5625 -10.65718,20.71832 -21.96723,41.04689 -32.90625,61.625 6.14583,0 12.29167,0 18.4375,0 26.33202,-49.16812 52.6518,-98.34283 79.0625,-147.46875 -6.39583,0 -12.79167,0 -19.1875,0 -11.83318,23.41674 -23.66759,46.83287 -35.5,70.25 -39.06188,-57.74968 -77.90417,-115.64744 -116.90625,-173.4375 -6.125,0 -12.25,0 -18.375,0 19.98958,30.15625 39.97917,60.3125 59.96875,90.46875 z"
           style="fill:#ffff00" />
        <path
           id="path3189-1-4-1-7-6"
           d="m 580.875,285.0625 c -16.89191,0.47729 -33.79198,0.16493 -50.6875,0.28125 0,47.86458 0,95.72917 0,143.59375 30.16734,-0.37649 62.27078,5.50786 90.65625,-7.25 18.29045,-12.59505 19.11708,-45.33617 -1.65625,-55.65625 -12.89074,-5.81989 -27.52802,-5.57176 -40.65625,-10.75 14.23031,-1.96072 29.21711,-8.36763 36,-21.90625 8.47888,-15.03243 4.79691,-38.045 -12.25,-45.25 -6.79069,-2.45166 -14.15825,-3.23574 -21.40625,-3.0625 z m -5.46875,9.21875 c 22.93246,-0.11043 35.66751,32.7984 19.1875,48.4375 -12.55028,12.69354 -36.4384,11.47101 -46.875,-3.40625 4.6985,-13.87895 -1.34926,-31.57267 10,-43.03125 5.34241,-2.60164 11.91737,-1.22074 17.6875,-2 z m 7.8125,66.15625 c 18.20803,-0.33541 36.0591,18.08335 30.75,36.53125 -4.63659,17.84073 -25.24006,26.12725 -42.1875,23.15625 -7.29102,0.12079 -14.58335,0.0387 -21.875,0.0625 0,-19.89583 0,-39.79167 0,-59.6875 11.10254,0.13525 22.21635,0.5198 33.3125,-0.0625 z"
           style="fill:#ffff00" />
        <path
           id="path3191-8-3-1-7-5"
           d="m 722.71875,335.125 c -30.7948,0.30573 -53.64973,35.77931 -43.29486,64.24477 6.72568,23.25747 34.05418,40.73946 57.70111,31.53648 8.42487,-2.83811 15.93722,-11.41987 25.53125,-9.3125 3.34276,1.32921 4.20207,5.47396 5.15625,8.1875 6.41451,-1.20146 13.05025,-0.36568 19.5625,-0.34375 0,-30.14583 0,-60.29167 0,-90.4375 -13.72783,-0.60084 -27.48856,0.91732 -41.09375,2.03125 -7.78033,-2.27009 -15.32505,-6.20479 -23.5625,-5.90625 z m 12.15625,10.59375 c 27.8944,-0.31468 47.06629,35.31951 32.46875,58.78125 -13.65956,24.06975 -53.86617,22.87051 -66.71875,-1.28125 -15.01967,-23.90682 6.29245,-59.03114 34.25,-57.5 z"
           style="fill:#ffff00" />
        <path
           id="path3193-9-1-3-9-0"
           d="m 904.9375,336.25 c -10.05577,0.0478 -19.51267,4.36255 -27.90625,9.5 16.15078,-5.438 37.98665,3.3652 40.64555,21.43405 4.09982,50.8641 0.0481,101.90999 1.6982,152.8472 0,35.39583 0,70.79167 0,106.1875 4.79925,-1.28229 14.81949,2.60716 16.26229,-1.99991 -0.8601,-90.29855 2.58408,-180.66648 -2.04354,-270.90634 -4.70908,-11.03857 -16.97158,-17.48401 -28.65625,-17.0625 z m -51.71875,2.875 c -4.65275,0.19164 -9.3134,0.30983 -13.96875,0.15625 0.10196,30.02048 -0.31703,60.04414 0.1875,90.0625 5.29251,-0.31571 12.00662,1.17299 16.53125,-0.4375 -0.34897,-24.67858 -4.35056,-51.59528 7.71875,-74.15625 0.18465,-1.13097 -6.77875,4.30307 -9.36619,5.31222 -3.66899,2.8736 -6.28774,3.36264 -5.47756,-1.96847 -0.1671,-6.89923 3.28431,-13.09084 6.3125,-19.0625 l -0.99883,0.0483 -0.93867,0.0454 z"
           style="fill:#ffff00" />
      </g>
      <g
         id="text3178-8-2-2-8-3-2"
         style="font-size:252.24754333px;font-style:normal;font-weight:normal;fill:#ff0000;fill-opacity:1;stroke:none;font-family:Aharoni;-inkscape-font-specification:Aharoni"
         transform="matrix(0.68228684,0,0,0.65342953,-9.2623879,-114.44216)">
        <path
           id="path3183-5-7-3-7-1-8"
           d="m 120.40625,291.0625 c 2.30638,1.04923 6.79609,3.53364 9.3125,6 17.06272,13.35103 19.67097,42.10963 4.03125,57.5625 15.75252,-6.63545 23.24285,-26.75613 16.15625,-42.21875 -4.63673,-11.95848 -16.27523,-21.80661 -29.5,-21.34375 z m -51.1875,38.96875 c 0.0035,94.40624 -0.211405,188.81289 0.15625,283.21875 4.943496,1.56293 6.592234,-0.77344 5.424457,-5.71874 C 74.404985,523.73779 75.669934,439.79192 74.125,356.09375 69.16988,347.12078 76.728,337.58434 74.84375,328.1875 74.994287,315.89573 74.029273,303.33917 77,291.3125 c -8.962761,-2.72565 -8.364438,4.14036 -7.803629,10.96875 0.0075,9.25 0.01492,18.5 0.02238,27.75 z m 38.1875,36.375 c 12.57479,18.52174 23.22992,38.74496 36,56.8125 3.24119,-0.0155 8.59619,1.5062 3.68104,-2.87007 -13.39165,-17.65346 -25.9111,-36.61952 -39.24354,-53.97368 l -0.0937,0 -0.34375,0.0312 z"
           style="fill:#ff0000" />
        <path
           id="path3185-7-9-3-4-9-6"
           d="m 255.46875,341.125 c -29.38688,1.17505 -48.98797,38.35307 -34.09375,63.4375 6.86915,13.757 22.86825,23.60025 37.53125,22.6875 -18.42518,-3.13221 -34.43241,-18.88507 -35.5625,-37.90625 -1.93712,-21.09682 12.27402,-42.5265 32.71875,-48.25 l -0.59375,0.0312 z m 57,3.65625 c -7.41095,0.0761 -14.7701,1.06727 -22.15625,1.5625 17.62775,11.57699 26.69909,36.18993 18.34375,56.09375 3.20649,-2.16504 6.16891,1.60962 4.75,4.71875 -0.3317,6.0012 -3.8926,11.1503 -6.5625,16.25 2.90218,-1.13705 9.91864,2.04224 8.1875,-3.25 -0.76906,-25.04161 0.29741,-50.75396 -0.46875,-75.375 -0.69726,-0.0407 -1.39651,-0.0429 -2.09375,0 z"
           style="fill:#ff0000" />
        <path
           id="path3187-6-5-4-2-8-0"
           d="m 312.34375,258.0625 c 36.84264,55.49172 73.54271,111.10534 110.5,166.53125 -9.40915,18.86282 -20.43839,37.62024 -29.65625,56.125 2.82362,0.68316 6.13152,0.0804 6.40952,-3.28784 23.61614,-44.12771 47.27082,-88.23478 70.93423,-132.33716 -2.9338,-0.81932 -6.93756,-0.58244 -7.13849,3.20503 -12.27664,24.2963 -24.55421,48.59212 -36.83026,72.88872 -40.40152,-59.58429 -80.45426,-119.58076 -120.84375,-179.0625 -5.81803,-1.30499 -2.73999,2.16504 -0.27594,5.57608 2.30031,3.45381 4.60063,6.90761 6.90094,10.36142 z"
           style="fill:#ff0000" />
        <path
           id="path3189-1-4-1-7-6-2"
           d="m 536.1875,291.34375 c 0,43.85417 0,87.70833 0,131.5625 7.53171,2.03878 8.90712,-2.068 7.71875,-8.875 0,-19.875 0,-39.75 0,-59.625 4.46323,-0.0124 10.40963,0.27299 13.90625,0.15625 -6.92759,-3.02717 -14.95262,-8.11476 -16.125,-16.09375 4.53183,-15.09191 -0.77048,-33.87548 11.4375,-46.09375 2.04042,-2.3498 -9.66188,-0.43206 -13.09375,-1.0625 -1.28125,0.0104 -2.5625,0.0208 -3.84375,0.0312 z m 52.75,0.1875 c 15.06659,7.99961 22.83979,27.51273 17.40625,43.71875 9.97411,-11.90856 9.1485,-34.15096 -6.0625,-41.34375 -3.52088,-1.5082 -8.33903,-2.54596 -11.34375,-2.375 z M 615.03125,371 c 10.76343,14.26328 5.06524,35.22861 -7.89619,46.11017 -1.89618,1.70745 -3.96517,3.2203 -6.13506,4.54608 9.29002,-2.24037 20.61109,-4.47755 24.59375,-14.4375 6.28712,-12.3356 3.17884,-31.04463 -10.8125,-36.53125 l 0.25,0.3125 z"
           style="fill:#ff0000" />
        <path
           id="path3191-8-3-1-7-5-4"
           d="m 721.6875,341.15625 c -28.73537,1.49288 -47.86838,37.03604 -34.4375,62.03125 6.7555,14.47374 22.45518,24.93827 38.5,24.09375 -20.62171,-3.47181 -37.9199,-22.87647 -36.03125,-44.21875 1.00468,-18.87627 15.17012,-36.81026 32.84375,-41.96875 l -0.125,0 -0.75,0.0625 z m 56.15625,3.6875 c -7.06092,0.11686 -14.08511,0.91854 -21.125,1.40625 20.45151,12.95557 29.10646,43.78556 14.03125,63.96875 -0.89858,2.25695 -4.95945,4.75873 -4.75,6.375 2.79619,1.39637 4.67329,4.24564 6.125,6.71875 3.06953,-0.4177 6.16977,-0.10995 9.25,-0.0312 0,-26.15625 0,-52.3125 0,-78.46875 -1.17717,-0.006 -2.35416,0.0226 -3.53125,0.0312 z"
           style="fill:#ff0000" />
        <path
           id="path3193-9-1-3-9-0-8"
           d="m 905.5,342.40625 c 12.04251,5.98256 20.11612,19.13904 18.70894,32.68418 3.10993,57.27151 -0.40767,114.63571 1.16606,171.94082 0.23797,24.25844 -0.48185,49.35912 0.375,73.09375 6.34217,2.73041 3.11421,-5.4472 3.79011,-9.09367 -0.66666,-85.70538 2.93061,-171.64945 -2.32136,-257.18758 -4.21631,-7.5063 -13.74783,-12.08132 -21.71875,-11.4375 z m -60.4375,2.8125 c -1.45918,2.44713 1.80412,0.23719 0,0 z m 0.1875,23.84375 c 0.0826,18.03105 -0.43195,36.5264 0.34375,54.28125 2.80876,0.65648 5.88844,1.20683 4.10973,-3.09047 -0.94612,-17.33757 -1.30549,-35.58758 2.23402,-52.25328 -2.36619,0.31039 -4.83985,-0.35466 -6.6875,-1.875 0,0.97917 0,1.95833 0,2.9375 z"
           style="fill:#ff0000" />
      </g>
    </g>
    <g
       id="jfx:newGame"
       inkscape:label="#g4064">
      <path
         id="text3902-1-8"
         d="m 453.24426,314.47649 c -5.12148,0.67269 -13.78269,-1.6225 -15.5625,5.1875 -0.67472,2.12146 0.68338,6.53834 -0.4375,7.21875 -4.33733,-2.36356 -10.29593,-0.96152 -14.15625,-0.5 0.8696,-8.6659 -11.29405,-14.97648 -17.125,-7.90625 -2.30183,1.94112 -2.0044,6.40184 -2.78125,8.03125 -5.30587,-2.04371 -12.18626,0.43489 -16.8125,-1.5625 -1.11813,-7.54549 -10.71971,-8.58642 -16.90625,-8.09375 -10.10409,1.39856 -16.43428,13.98 -10.78125,22.5625 -1.32207,3.9549 -5.23177,9.00403 -1.09375,12.71875 5.26924,5.16835 14.24342,5.82505 20.90625,3.21875 -0.95925,7.70524 8.57959,13.98695 14.875,9 2.96343,-1.55161 4.27459,-5.17656 5.5,-7.65625 3.60204,-0.37256 7.32484,-4.3707 10.5,-0.875 6.35139,1.95346 13.17112,-1.76232 19.375,1.21875 5.43915,0.41178 10.85643,-4.01668 15.96875,-0.71875 5.14367,1.208 13.23991,-1.76005 11.34375,-8.25 -0.24506,-11.34187 0.61489,-22.72196 -0.59375,-34.03125 -0.73958,0.14583 -1.47917,0.29167 -2.21875,0.4375 z m -197.1875,2.4375 c -3.91251,0.1663 -7.87377,1.91497 -10.40625,4.84375 -4.40726,-5.28071 -15.37141,-7.5275 -19.09375,-0.28125 -2.37953,6.26311 0.83221,13.1035 -0.40625,19.65625 -0.1738,4.82071 -0.30775,9.64883 -0.0312,14.46875 6.34173,1.78775 14.74562,1.48357 18.9375,-3.75 4.37,4.87941 12.74879,6.50564 17.96875,2.03125 6.428,4.9911 15.56302,2.83068 21.9375,-0.4375 6.72007,5.26443 16.79508,4.37867 23.4375,-0.5625 5.77334,5.19416 14.74174,4.60917 21.15625,1.6875 8.79967,5.76768 24.57626,0.8467 24.40625,-10.84375 -1.40007,-3.57765 -1.95078,-7.71277 -0.6875,-11.34375 -2.16048,-9.15196 -14.98952,-8.86045 -21.21875,-4.125 -2.30765,3.44226 -4.2632,-2.84557 -7.5,-2.21875 -5.02753,-1.51742 -10.53293,-0.0412 -15,1.96875 -6.45741,-4.41917 -14.80683,-1.10693 -21.875,-2.125 -3.53861,1.51422 -7.47219,2.1131 -10.78125,0 -4.03919,-1.1009 -8.38543,-0.28336 -12.15625,1.34375 1.59468,-4.79015 -1.22631,-11.12168 -7,-10.34375 -0.5625,0.01 -1.12636,-0.0248 -1.6875,0.0312 z"
         style="font-size:40px;font-style:normal;font-weight:normal;fill:#0000ff;fill-opacity:1;stroke:none;font-family:Aharoni;-inkscape-font-specification:Aharoni" />
      <path
         id="text3902-1"
         d="m 441.63662,321.63274 c -0.0681,5.38452 0.13258,12.97734 -0.0937,17.0625 -2.24815,-11.44191 -21.2888,-10.99066 -23.21875,0.34375 2.14082,-4.83032 -2.70773,-8.13985 -1.21875,-9.21875 4.98808,-4.41028 -1.96173,-12.65333 -7.1875,-8.5625 -3.37315,2.17637 -3.05263,7.73286 0.53125,9.5625 -5.06115,-2.99053 -1.13074,10.50978 -2.9375,6.6875 -2.03056,-6.18623 -9.3734,-8.4655 -15,-6.6875 -7.75093,-1.61551 -11.27621,0.99462 -9.40625,9 -0.33087,-1.72205 -2.36929,-4.95888 -4.84375,-5.8125 0.69946,-3.5352 7.6899,-9.15356 1.84375,-10.46875 -6.50554,-3.67255 -17.21979,-2.26058 -19.03125,6.09375 -0.95971,3.57265 -0.28633,8.02663 2.9375,10.28125 -0.99423,3.73647 -7.6916,8.99702 -2.28125,11.1875 6.96013,4.68138 19.69897,3.19156 21.375,-6.34375 0.6811,5.40223 -1.35911,13.52578 1,17.25 7.75093,1.61551 11.27621,-0.99462 9.40625,-9 5.68866,2.10452 13.15487,-1.68358 14.40625,-8 -2.48296,8.59754 3.53731,8.69186 10.40625,7.9375 0.34709,-2.10999 -0.84391,-10.8011 0.90625,-5.46875 4.14277,8.7635 19.94895,8.39898 22.40625,-1.5 -3.44736,8.2276 6.61249,8.33214 10.40625,5.96875 0,-10.77083 0,-21.54167 0,-32.3125 -2.89964,0.95603 -10.80236,-2.11386 -10.40625,2 z m -211.59375,2.65625 c 0,9.55208 0,19.10417 0,28.65625 6.98827,0.67577 13.55249,0.92749 10.9375,-8 -1.24608,-9.79366 5.67041,4.10344 8.62357,6.49753 4.5652,3.30484 14.34475,2.71603 11.06393,-5.49753 0,-7.88542 0,-15.77083 0,-23.65625 -6.98827,-0.67577 -13.55249,-0.92749 -10.9375,8 1.24608,9.79366 -5.67041,-4.10344 -8.62357,-6.49753 -1.14472,-2.1317 -12.04141,-2.8848 -11.06393,0.49753 z m 110.1875,5.9375 c -6.41377,-0.41766 -11.74377,7.74145 -7.25,12.96875 -1.9055,3.62995 -5.51354,7.85244 -0.0312,9.125 6.28438,3.22717 17.01741,0.80881 16.875,-7.59375 0.4624,-2.6216 -2.20484,-4.69482 -2.90625,-6.3125 3.3694,-4.12542 3.59294,-7.56637 -2.125,-7.90625 -1.49598,-0.29406 -3.0267,-0.39384 -4.5625,-0.28125 z m -68.53125,0.125 c -10.03159,-0.17084 -14.48002,13.87056 -7.28125,20.1875 5.9472,5.74714 18.45019,3.49235 20.1875,-4.65625 1.52564,8.9811 14.27276,9.83623 20.375,5.21875 1.96769,-0.98845 2.68207,-5.30997 2.96875,-5.4375 2.81175,10.91128 21.83824,10.76277 23.46875,-0.8125 1.30289,-5.76574 -2.93131,-14.48095 -10.34375,-14.46875 -5.77554,-0.83982 -12.04627,2.51179 -13.25,8.4375 2.48003,-8.61544 -3.48882,-8.78201 -10.40625,-8 -0.78728,4.13311 1.31001,10.05314 -0.53125,13.5625 -3.95942,0.84644 -1.11483,-5.5139 -1.96875,-7.4375 3.21346,-7.80612 -7.17759,-7.14471 -10.40625,-5.125 -0.27307,2.22767 0.77328,10.4263 -0.96875,4.46875 -2.04989,-4.47825 -7.15804,-6.39937 -11.84375,-5.9375 z m 101.0625,1.09375 c 1.72732,-0.40171 6.65735,3.30652 2.5625,1.40625 -0.12003,-0.18446 -4.91875,-1.11535 -2.5625,-1.40625 z m 23.03125,8.34375 c 4.09666,0.77687 0.0881,6.71419 -2.15625,3.1875 -1.0521,-1.45276 0.45016,-3.53611 2.15625,-3.1875 z m -31.1875,0.46875 c 1.90842,1.64811 6.5316,1.24649 7.34375,3.28125 -2.67593,1.35534 -6.11322,-1.92767 -7.34375,-3.28125 z m -90.75,4.8125 c -0.94675,0.23165 -2.35153,-0.15887 0,0 z m 46.5625,0 c -0.94675,0.23165 -2.35153,-0.15887 0,0 z m 110.5,0 c -0.90659,0.24545 -2.35207,-0.19745 0,0 z"
         style="font-size:40px;font-style:normal;font-weight:normal;fill:#00ff00;fill-opacity:1;stroke:none;font-family:Aharoni;-inkscape-font-specification:Aharoni" />
      <text
         id="text3902"
         y="350.54007"
         x="229.23038"
         style="font-size:40px;font-style:normal;font-weight:normal;fill:#000000;fill-opacity:1;stroke:none;font-family:Aharoni;-inkscape-font-specification:Aharoni"
         xml:space="preserve"><tspan
           style="fill:#ffff00"
           y="350.54007"
           x="229.23038"
           id="tspan3904"
           sodipodi:role="line">Neues Spiel</tspan></text>
      <path
         id="text3902-0"
         d="m 444.92482,349.03205 c 5.33575,-0.79966 1.00821,-11.26262 2.40625,-16 1.91807,-6.7927 -3.14333,-14.13413 -2.40625,-3.34375 0,6.44792 0,12.89583 0,19.34375 z m -32.6875,-24.65625 c -3.9503,1.04976 1.65929,5.57462 1.8125,1.34375 -0.0934,-0.80437 -0.96273,-1.54616 -1.8125,-1.34375 z m -41.5625,1.375 c -6.09548,-0.7274 -9.70609,9.54886 -3.53125,11.71875 4.28408,0.13135 11.18348,4.36604 6.9375,9 -2.67586,2.38439 -6.80654,1.57477 -9.53125,-0.3125 -2.53489,3.26277 3.89701,3.46787 6.15625,3.5625 6.13078,1.03112 10.89995,-7.69945 5.875,-11.59375 -3.32688,-1.96646 -10.7531,-2.10787 -9.125,-7.8125 1.46866,-3.16158 5.78403,-3.37948 8.53125,-1.875 2.59564,-2.8115 -3.87199,-2.46385 -5.3125,-2.6875 z m -137.3125,23.28125 c 6.03137,-0.0415 1.51923,-10.6266 2.90625,-15.3125 -1.33451,-10.06488 5.46823,3.51093 8.49331,6.08102 2.41774,3.42448 10.05944,14.69076 11.19419,6.23148 0,-6.55208 0,-13.10417 0,-19.65625 -6.03137,0.0415 -1.51923,10.6266 -2.90625,15.3125 1.33451,10.06488 -5.46823,-3.51093 -8.49331,-6.08102 -2.41774,-3.42448 -10.05944,-14.69076 -11.19419,-6.23148 0,6.55208 0,13.10417 0,19.65625 z m 106.4375,-14.71875 c -3.80294,-0.8099 -7.56902,5.51503 -3.1875,7.09375 3.26417,-0.18224 8.30836,2.99565 5.125,6.46875 -2.13033,2.58922 -6.29934,-0.63188 -7.78125,0.875 4.0692,2.29997 12.64132,0.90721 10.90625,-5.28125 -1.77151,-3.08425 -8.90505,-1.38251 -7.65625,-6.5 0.45088,-3.23057 6.04971,-1.7743 6.0625,-2.4375 -1.13663,-0.27607 -2.27649,-0.30009 -3.46875,-0.21875 z m 56.21875,0.0312 c -1.90108,-0.34281 -5.49166,2.88907 -1.84375,1.53125 6.70476,-1.04579 9.34006,9.35408 3.0625,11.75 -1.77159,0.68176 -3.93044,0.68315 -5.5625,-0.375 4.20842,5.69759 13.43041,0.23439 11.84375,-6.25 -0.25041,-3.77117 -3.70734,-6.95138 -7.5,-6.65625 z m -124.6875,0.0937 c -8.29278,-0.47952 -9.81255,13.32454 -1.78125,14.9375 3.03965,0.71831 6.90014,0.63518 9.125,-1.875 -2.95187,0.11659 -5.88284,3.17014 -9.15625,1.0625 -4.20473,-2.93695 -4.12458,-10.07975 -0.21875,-13.21875 4.25642,-2.77908 9.51665,0.98474 9.4375,5.8125 3.35225,-1.08653 -1.86454,-7.36778 -5.21875,-6.6875 -0.72116,-0.10508 -1.46206,-0.0827 -2.1875,-0.0312 z m 46.5625,0 c -8.29278,-0.47952 -9.81255,13.32454 -1.78125,14.9375 3.03965,0.71831 6.90014,0.63518 9.125,-1.875 -2.95187,0.11659 -5.88284,3.17014 -9.15625,1.0625 -4.20473,-2.93695 -4.12458,-10.07975 -0.21875,-13.21875 4.25642,-2.77908 9.51665,0.98474 9.4375,5.8125 3.35225,-1.08653 -1.86454,-7.36778 -5.21875,-6.6875 -0.72116,-0.10508 -1.46206,-0.0827 -2.1875,-0.0312 z m 110.5625,0 c -8.42081,-0.44117 -9.75773,13.32476 -1.8125,14.9375 3.06431,0.72868 6.88904,0.63108 9.15625,-1.875 -2.93142,0.1307 -5.85324,3.168 -9.09375,1.09375 -5.60477,-3.41526 -3.67897,-15.41757 4.0625,-14.0625 3.24922,0.42385 4.6262,3.71132 5.0625,6.625 2.95423,0.0699 -0.0789,-4.78142 -1.8125,-5.625 -1.62637,-1.03264 -3.6816,-1.21105 -5.5625,-1.09375 z m -140.625,9.96875 c 0.12244,6.61508 10.24197,6.77627 14.1875,3.40625 2.4818,-3.70877 0.46797,-8.73275 1.125,-12.90625 -4.87654,-0.56069 -1.26185,6.68775 -2.625,10 -1.20483,5.74527 -11.08644,4.25167 -10.28125,-1.71875 1.91082,-8.30835 -3.82771,-11.20967 -2.40625,-1.28125 0,0.83333 0,1.66667 0,2.5 z m 98.59375,13.6876 c 5.59988,0.51127 0.37668,-12.36722 2.9375,-13.21875 -1.62081,-3.08033 0.0757,-6.67289 -0.53125,-9.96875 -5.33575,0.79966 -1.00821,11.26262 -2.40625,16 0,2.39583 0,4.79167 0,7.1875 z m 24.8125,-9.0625 c 4.5652,0.13416 2.48598,-12.02865 1.40625,-14.125 -3.31755,1.49114 -0.4435,10.16169 -1.40625,14.125 z"
         style="font-size:40px;font-style:normal;font-weight:normal;fill:#ff0000;fill-opacity:1;stroke:none;font-family:Aharoni;-inkscape-font-specification:Aharoni" />
    </g>
    <path
       style="fill:none;stroke:#fdff00;stroke-width:1.46400000000000000;stroke-linecap:butt;stroke-linejoin:miter;stroke-miterlimit:4;stroke-opacity:1;stroke-dasharray:none"
       d="m 108.07076,423.65579 c -14.908339,-19.09608 13.56097,31.89055 20.10113,31.82679 6.52084,-0.0619 36.08612,-50.91688 20.60366,-30.82173 -18.24116,23.67576 -23.45132,23.78634 -40.70479,-1.00506 z"
       id="path2898"
       sodipodi:nodetypes="cssc" />
    <path
       style="fill:none;stroke:#ff0008;stroke-width:1.46399999;stroke-linecap:butt;stroke-linejoin:miter;stroke-miterlimit:4;stroke-opacity:1;stroke-dasharray:none"
       d="m 193.32583,481.70837 c -14.90833,-19.09608 13.56097,31.89055 20.10113,31.82679 6.52084,-0.0619 36.08612,-50.91688 20.60366,-30.82173 -18.24116,23.67576 -23.45132,23.78634 -40.70479,-1.00506 z"
       id="path2898-1"
       sodipodi:nodetypes="cssc" />
    <path
       style="fill:none;stroke:#ff0008;stroke-width:1.46399999;stroke-linecap:butt;stroke-linejoin:miter;stroke-miterlimit:4;stroke-opacity:0.5692308;stroke-dasharray:none"
       d="m 194.24326,473.45149 c -14.90833,-19.09608 13.56097,31.89055 20.10113,31.82679 6.52084,-0.0619 36.08612,-50.91688 20.60366,-30.82173 -18.24116,23.67576 -23.45132,23.78634 -40.70479,-1.00506 z"
       id="path2898-1-7"
       sodipodi:nodetypes="cssc" />
    <path
       style="fill:none;stroke:#ff0008;stroke-width:1.46399999000000000;stroke-linecap:butt;stroke-linejoin:miter;stroke-miterlimit:4;stroke-opacity:0.37692308;stroke-dasharray:none"
       d="m 194.24327,465.19461 c -14.90833,-19.09608 13.56097,31.89055 20.10113,31.82679 6.52084,-0.0619 36.08612,-50.91688 20.60366,-30.82173 -18.24116,23.67576 -23.45132,23.78634 -40.70479,-1.00506 z"
       id="path2898-1-7-4"
       sodipodi:nodetypes="cssc" />
    <path
       style="fill:none;stroke:#ff0008;stroke-width:1.46399999;stroke-linecap:butt;stroke-linejoin:miter;stroke-miterlimit:4;stroke-opacity:0.24615383;stroke-dasharray:none"
       d="m 194.24327,455.26801 c -14.90833,-19.09609 13.56097,31.89054 20.10113,31.82678 6.52084,-0.0619 36.08612,-50.91688 20.60366,-30.82172 -18.24116,23.67575 -23.45132,23.78633 -40.70479,-1.00506 z"
       id="path2898-1-7-4-0"
       sodipodi:nodetypes="cssc" />
    <path
       style="fill:none;stroke:#fdff00;stroke-width:1.46399999;stroke-linecap:butt;stroke-linejoin:miter;stroke-miterlimit:4;stroke-opacity:0.7;stroke-dasharray:none"
       d="m 108.00474,412.90103 c -14.908342,-19.09608 13.56097,31.89055 20.10113,31.82679 6.52084,-0.0619 36.08612,-50.91688 20.60366,-30.82173 -18.24116,23.67576 -23.45132,23.78634 -40.70479,-1.00506 z"
       id="path2898-7"
       sodipodi:nodetypes="cssc" />
    <path
       style="fill:none;stroke:#fdff00;stroke-width:1.46399999000000000;stroke-linecap:butt;stroke-linejoin:miter;stroke-miterlimit:4;stroke-opacity:0.46923077;stroke-dasharray:none"
       d="m 108.92217,402.80929 c -14.908338,-19.09608 13.56097,31.89055 20.10113,31.82679 6.52084,-0.0619 36.08612,-50.91688 20.60366,-30.82173 -18.24116,23.67576 -23.45132,23.78634 -40.70479,-1.00506 z"
       id="path2898-7-1"
       sodipodi:nodetypes="cssc" />
    <path
       style="fill:none;stroke:#fdff00;stroke-width:1.46399999;stroke-linecap:butt;stroke-linejoin:miter;stroke-miterlimit:4;stroke-opacity:0.25;stroke-dasharray:none"
       d="m 109.8396,392.71755 c -14.908334,-19.09608 13.56097,31.89055 20.10113,31.82679 6.52084,-0.0619 36.08612,-50.91688 20.60366,-30.82173 -18.24116,23.67576 -23.45132,23.78634 -40.70479,-1.00506 z"
       id="path2898-7-1-1"
       sodipodi:nodetypes="cssc" />
  </g>
</svg>
